<svg width="221" height="145" viewBox="0 0 221 145" fill="none" xmlns="http://www.w3.org/2000/svg">
<path fill-rule="evenodd" clip-rule="evenodd" d="M183.84 74.0369C193.448 74.7435 198.912 79.3589 198.912 86.7532C198.912 95.9849 190.905 101.967 178.894 102.155L178.282 105.689H169.286L169.945 101.967C160.337 101.213 154.873 96.6912 154.873 89.2023C154.873 79.971 162.881 73.99 174.891 73.8016L175.409 70.8337H184.405L183.84 74.0369ZM173.619 81.0541C167.355 81.2426 163.54 84.3515 163.54 89.2023C163.54 92.7348 166.083 94.6666 171.17 94.9964L173.619 81.0541ZM180.167 94.9029C186.431 94.7142 190.245 91.6043 190.245 86.7532C190.245 83.2212 187.702 81.2904 182.616 80.9606L180.167 94.9029Z" fill="#E1FAC0"/>
<path d="M84.58 96.2677H93.5758L97.91 71.7763H106.811L102.478 96.2677H111.474L114.74 77.8115H123.923L119.152 104.746H73.8877L79.7285 71.7763H88.9128L84.58 96.2677Z" fill="#E1FAC0"/>
<path d="M154.335 79.736H137.662L136.814 84.4458H151.981L150.662 91.7464H135.543L134.647 96.7865H151.416L149.956 104.746H124.097L129.891 71.7763H155.797L154.335 79.736Z" fill="#E1FAC0"/>
<path d="M9.54474 72.3155C10.8788 84.3198 19.2916 91.9165 29.6961 94.1882C40.1893 96.479 52.3751 93.2247 60.4784 83.4418L67.8346 89.5355C57.2893 102.266 41.3859 106.517 27.659 103.52C13.8441 100.504 1.90236 90.0201 0.0521184 73.3705L9.54474 72.3155Z" fill="#A6ED49"/>
<path fill-rule="evenodd" clip-rule="evenodd" d="M78.0637 0.0029226C78.0641 0.00426973 78.0646 0.0069101 78.0652 0.00876781C78.0666 0.0130158 78.0689 0.0194187 78.0711 0.0263034C78.0758 0.041581 78.0816 0.0647101 78.09 0.092062C78.1074 0.147771 78.1327 0.229394 78.1646 0.333177C78.2286 0.541872 78.3216 0.846699 78.4378 1.23626C78.6708 2.01684 79.0011 3.14511 79.3935 4.54903C79.7337 5.76612 80.1183 7.19558 80.5319 8.78827C89.5588 3.60963 100.68 2.84671 112.036 8.53254C117.976 11.5067 122.139 15.6114 124.787 20.7169C127.388 25.7308 128.369 31.3997 128.52 37.2997C128.796 48.1115 126.231 61.331 124.283 74.8187H114.637C116.726 59.9498 119.23 47.7181 118.97 37.5438C118.84 32.4716 118.006 28.3878 116.309 25.1154C114.659 21.9352 112.037 19.2163 107.759 17.0739C98.3181 12.3471 89.6326 13.6311 82.87 18.6506C84.595 26.7541 86.1483 36.4334 85.9811 44.653C85.8881 49.2193 85.2623 53.8348 83.4735 57.5578C81.5666 61.5262 78.1931 64.6694 73.0836 65.1916C67.1793 65.7946 62.1586 64.0854 59.3021 59.5437C56.776 55.5265 56.7086 50.3876 57.417 45.8264C58.8646 36.5082 64.2056 25.4993 69.7256 18.3496C70.5451 17.2881 71.4113 16.2735 72.3194 15.3115C71.5447 12.0835 70.793 9.26045 70.1946 7.11946C69.8186 5.77425 69.5044 4.70008 69.2857 3.96744C69.1765 3.60175 69.0902 3.31984 69.0329 3.13303C69.0046 3.0408 68.9826 2.97072 68.9686 2.92553C68.9618 2.90372 68.9572 2.88612 68.954 2.87584C68.9526 2.87163 68.9504 2.86764 68.9496 2.86561L78.0623 0L78.0637 0.0029226ZM74.8723 27.6318C71.0852 33.547 67.8107 41.1438 66.8556 47.2921C66.2636 51.103 66.7157 53.3875 67.3889 54.4584C67.7326 55.0045 68.596 56.0494 72.1133 55.6902C73.2212 55.5768 74.0652 55.0821 74.8635 53.4208C75.78 51.5133 76.3491 48.503 76.4315 44.4587C76.5348 39.3783 75.8646 33.4464 74.8723 27.6318Z" fill="#A6ED49"/>
<path fill-rule="evenodd" clip-rule="evenodd" d="M20.9517 0.014613C20.9526 0.0170938 20.9548 0.0209728 20.956 0.0248421C20.9587 0.0334196 20.9617 0.0465022 20.9663 0.0613747C20.9759 0.092434 20.9911 0.138541 21.0087 0.195815C21.044 0.311181 21.0942 0.479673 21.1592 0.69558C21.2896 1.12924 21.4773 1.76036 21.7072 2.55874C22.1525 4.10598 22.7594 6.29116 23.433 8.91248C25.8189 7.59464 28.3688 6.58398 31.061 5.91681C38.4055 4.09719 46.4485 4.91467 54.6551 8.40979C60.0933 10.7261 64.0583 14.184 66.9242 18.221C64.6731 20.7977 62.6846 24.184 61.1448 27.2299C59.0505 22.8287 55.7858 19.2742 50.9113 17.1981C44.3022 14.3834 38.3858 13.9432 33.3581 15.1888C30.6494 15.8601 28.0909 17.0497 25.7345 18.7441C26.4488 22.1415 27.1251 25.778 27.6576 29.4423C28.7282 36.8109 29.2911 44.7239 28.2026 51.1149C27.6572 54.3166 26.6353 57.5298 24.7204 60.1238C22.6922 62.8705 19.7713 64.7541 16.0315 65.1858C10.1541 65.8638 5.12894 64.1886 2.27038 59.6357C-0.241967 55.6335 -0.318228 50.4928 0.375066 45.9273C1.79309 36.5906 7.07709 25.5188 12.612 18.3496C13.4276 17.2933 14.2864 16.2896 15.1839 15.3437C14.8645 13.9994 14.5498 12.7214 14.2457 11.5326C13.5735 8.90458 12.9664 6.7213 12.5287 5.20077C12.3102 4.4416 12.1332 3.84731 12.0129 3.44721C11.9529 3.24791 11.9061 3.09541 11.8755 2.99567C11.8604 2.94631 11.8492 2.90812 11.8419 2.88461C11.8385 2.87371 11.8361 2.8648 11.8346 2.85977C11.8341 2.85833 11.8334 2.85631 11.8331 2.85538C11.8425 2.85274 12.0451 2.7883 16.3909 1.43208C20.625 0.110747 20.9297 0.0173545 20.9517 0.0116904V0.014613ZM17.7149 27.7121C13.9699 33.617 10.7522 41.2104 9.818 47.3608C9.23579 51.195 9.69063 53.493 10.3587 54.5577C10.6812 55.0713 11.4907 56.0932 14.9355 55.6961C15.8573 55.5897 16.4642 55.2242 17.0354 54.451C17.7196 53.5242 18.372 51.9406 18.786 49.5104C19.6162 44.6358 19.2395 37.9299 18.2059 30.8159C18.0552 29.7792 17.8879 28.7426 17.7149 27.7121Z" fill="#A6ED49"/>
<path d="M81.7129 117.626L80.0946 125.672H79.324L80.7882 118.32H75.2859L73.8371 125.672H73.0664L74.6694 117.626H81.7129ZM86.6438 125.733C85.5546 125.733 84.6864 125.43 84.0391 124.824C83.402 124.218 83.0835 123.406 83.0835 122.389C83.0835 121.474 83.2787 120.652 83.6691 119.923C84.0699 119.193 84.6196 118.618 85.3183 118.196C86.017 117.775 86.8082 117.565 87.6918 117.565C88.781 117.565 89.6441 117.868 90.2812 118.474C90.9285 119.07 91.2522 119.882 91.2522 120.909C91.2522 121.824 91.0518 122.651 90.6511 123.391C90.2606 124.12 89.716 124.695 89.0173 125.117C88.3186 125.528 87.5274 125.733 86.6438 125.733ZM86.7054 125.04C87.4247 125.04 88.0669 124.865 88.632 124.516C89.2074 124.166 89.6595 123.683 89.9883 123.067C90.3171 122.44 90.4815 121.736 90.4815 120.955C90.4815 120.103 90.2298 119.44 89.7263 118.967C89.2331 118.494 88.5344 118.258 87.6302 118.258C86.9109 118.258 86.2636 118.438 85.6882 118.798C85.1231 119.147 84.6761 119.635 84.3473 120.262C84.0185 120.878 83.8541 121.572 83.8541 122.342C83.8541 123.195 84.1007 123.858 84.5939 124.331C85.0974 124.803 85.8012 125.04 86.7054 125.04ZM100.541 117.626L98.923 125.672H98.1523L99.6165 118.304H95.4243L94.8849 120.478C94.5663 121.741 94.2529 122.754 93.9447 123.514C93.6467 124.274 93.3179 124.839 92.9583 125.209C92.5987 125.579 92.1876 125.764 91.7253 125.764C91.5198 125.764 91.2937 125.728 91.0471 125.656L91.2321 124.993C91.4376 125.035 91.5609 125.055 91.602 125.055C91.9719 125.055 92.3007 124.891 92.5884 124.562C92.8761 124.233 93.1432 123.735 93.3898 123.067C93.6467 122.389 93.9139 121.49 94.1913 120.37L94.8849 117.626H100.541ZM102.699 121.818C102.679 122.045 102.669 122.214 102.669 122.327C102.669 123.2 102.92 123.873 103.424 124.346C103.927 124.809 104.667 125.04 105.643 125.04C106.208 125.04 106.727 124.947 107.2 124.762C107.683 124.567 108.084 124.3 108.402 123.961L108.757 124.5C108.397 124.891 107.935 125.194 107.369 125.41C106.815 125.625 106.219 125.733 105.582 125.733C104.441 125.733 103.542 125.435 102.884 124.839C102.237 124.243 101.913 123.416 101.913 122.358C101.913 121.454 102.103 120.637 102.484 119.907C102.864 119.178 103.388 118.607 104.056 118.196C104.724 117.775 105.474 117.565 106.306 117.565C107.354 117.565 108.186 117.863 108.803 118.459C109.419 119.054 109.728 119.876 109.728 120.925C109.728 121.171 109.697 121.469 109.635 121.818H102.699ZM106.291 118.227C105.417 118.227 104.662 118.5 104.025 119.044C103.398 119.589 102.987 120.313 102.792 121.217H108.988C108.998 121.125 109.003 120.991 109.003 120.817C109.003 120.005 108.757 119.373 108.263 118.921C107.77 118.459 107.113 118.227 106.291 118.227ZM115.129 121.495C116.228 121.762 116.778 122.342 116.778 123.236C116.778 123.709 116.619 124.136 116.3 124.516C115.982 124.896 115.535 125.199 114.959 125.425C114.394 125.641 113.762 125.749 113.064 125.749C112.437 125.749 111.867 125.656 111.353 125.471C110.839 125.286 110.402 125.014 110.043 124.654L110.428 124.13C110.716 124.439 111.086 124.675 111.538 124.839C112 124.993 112.509 125.071 113.064 125.071C113.618 125.071 114.117 124.988 114.559 124.824C115.011 124.66 115.365 124.433 115.622 124.146C115.879 123.858 116.007 123.54 116.007 123.19C116.007 122.759 115.817 122.42 115.437 122.173C115.057 121.926 114.533 121.803 113.865 121.803H112.617L112.725 121.187H113.803C114.564 121.187 115.18 121.043 115.653 120.755C116.126 120.457 116.362 120.072 116.362 119.599C116.362 119.178 116.177 118.844 115.807 118.597C115.447 118.351 114.949 118.227 114.312 118.227C113.5 118.227 112.632 118.453 111.707 118.905L111.461 118.258C112.447 117.775 113.408 117.534 114.343 117.534C115.185 117.534 115.864 117.714 116.377 118.073C116.891 118.423 117.148 118.9 117.148 119.507C117.148 119.989 116.968 120.406 116.609 120.755C116.259 121.094 115.766 121.341 115.129 121.495ZM120.224 117.626H120.995L120.255 121.294H125.726L126.466 117.626H127.237L125.618 125.672H124.848L125.603 121.973H120.132L119.392 125.672H118.621L120.224 117.626ZM137.963 117.626H138.734L137.115 125.672H136.345L137.963 117.626ZM132.754 120.539C134.541 120.539 135.435 121.248 135.435 122.666C135.435 123.262 135.281 123.791 134.973 124.254C134.675 124.706 134.249 125.055 133.694 125.302C133.139 125.548 132.492 125.672 131.752 125.672H128.623L130.226 117.642H130.997L130.426 120.539H132.754ZM131.752 125.071C132.625 125.071 133.329 124.855 133.863 124.423C134.408 123.992 134.68 123.421 134.68 122.712C134.68 122.178 134.5 121.783 134.141 121.526C133.791 121.269 133.252 121.14 132.522 121.14H130.303L129.517 125.071H131.752ZM140.901 121.818C140.881 122.045 140.87 122.214 140.87 122.327C140.87 123.2 141.122 123.873 141.626 124.346C142.129 124.809 142.869 125.04 143.845 125.04C144.41 125.04 144.929 124.947 145.402 124.762C145.885 124.567 146.285 124.3 146.604 123.961L146.958 124.5C146.599 124.891 146.136 125.194 145.571 125.41C145.016 125.625 144.42 125.733 143.783 125.733C142.643 125.733 141.744 125.435 141.086 124.839C140.439 124.243 140.115 123.416 140.115 122.358C140.115 121.454 140.305 120.637 140.685 119.907C141.066 119.178 141.59 118.607 142.257 118.196C142.925 117.775 143.675 117.565 144.508 117.565C145.556 117.565 146.388 117.863 147.005 118.459C147.621 119.054 147.929 119.876 147.929 120.925C147.929 121.171 147.898 121.469 147.837 121.818H140.901ZM144.492 118.227C143.619 118.227 142.864 118.5 142.227 119.044C141.6 119.589 141.189 120.313 140.994 121.217H147.19C147.2 121.125 147.205 120.991 147.205 120.817C147.205 120.005 146.958 119.373 146.465 118.921C145.972 118.459 145.314 118.227 144.492 118.227ZM158.501 117.565C159.549 117.565 160.391 117.868 161.028 118.474C161.665 119.07 161.984 119.882 161.984 120.909C161.984 121.824 161.783 122.651 161.383 123.391C160.992 124.12 160.448 124.695 159.749 125.117C159.061 125.528 158.285 125.733 157.422 125.733C156.589 125.733 155.901 125.559 155.356 125.209C154.822 124.85 154.452 124.336 154.247 123.668L153.245 128.662H152.474L154.678 117.626H155.433L155.125 119.183C155.516 118.669 155.999 118.274 156.574 117.996C157.149 117.708 157.792 117.565 158.501 117.565ZM157.437 125.04C158.156 125.04 158.799 124.865 159.364 124.516C159.939 124.156 160.386 123.668 160.705 123.051C161.033 122.435 161.198 121.736 161.198 120.955C161.198 120.103 160.946 119.44 160.443 118.967C159.949 118.494 159.251 118.258 158.346 118.258C157.627 118.258 156.98 118.433 156.404 118.782C155.839 119.132 155.392 119.62 155.064 120.246C154.735 120.863 154.57 121.562 154.57 122.342C154.57 123.195 154.822 123.858 155.326 124.331C155.829 124.803 156.533 125.04 157.437 125.04ZM164.164 121.818C164.143 122.045 164.133 122.214 164.133 122.327C164.133 123.2 164.385 123.873 164.888 124.346C165.392 124.809 166.132 125.04 167.108 125.04C167.673 125.04 168.192 124.947 168.665 124.762C169.147 124.567 169.548 124.3 169.867 123.961L170.221 124.5C169.862 124.891 169.399 125.194 168.834 125.41C168.279 125.625 167.683 125.733 167.046 125.733C165.906 125.733 165.007 125.435 164.349 124.839C163.702 124.243 163.378 123.416 163.378 122.358C163.378 121.454 163.568 120.637 163.948 119.907C164.328 119.178 164.852 118.607 165.52 118.196C166.188 117.775 166.938 117.565 167.771 117.565C168.819 117.565 169.651 117.863 170.267 118.459C170.884 119.054 171.192 119.876 171.192 120.925C171.192 121.171 171.161 121.469 171.1 121.818H164.164ZM167.755 118.227C166.882 118.227 166.127 118.5 165.49 119.044C164.863 119.589 164.452 120.313 164.256 121.217H170.452C170.463 121.125 170.468 120.991 170.468 120.817C170.468 120.005 170.221 119.373 169.728 118.921C169.235 118.459 168.577 118.227 167.755 118.227ZM179.685 124.993H181.026L180.471 127.768H179.732L180.163 125.672H172.673L174.275 117.626H175.046L173.582 124.993H178.915L180.394 117.626H181.165L179.685 124.993ZM183.596 121.818C183.575 122.045 183.565 122.214 183.565 122.327C183.565 123.2 183.817 123.873 184.32 124.346C184.824 124.809 185.564 125.04 186.54 125.04C187.105 125.04 187.624 124.947 188.096 124.762C188.579 124.567 188.98 124.3 189.299 123.961L189.653 124.5C189.294 124.891 188.831 125.194 188.266 125.41C187.711 125.625 187.115 125.733 186.478 125.733C185.338 125.733 184.439 125.435 183.781 124.839C183.134 124.243 182.81 123.416 182.81 122.358C182.81 121.454 183 120.637 183.38 119.907C183.76 119.178 184.284 118.607 184.952 118.196C185.62 117.775 186.37 117.565 187.203 117.565C188.251 117.565 189.083 117.863 189.699 118.459C190.316 119.054 190.624 119.876 190.624 120.925C190.624 121.171 190.593 121.469 190.532 121.818H183.596ZM187.187 118.227C186.314 118.227 185.559 118.5 184.921 119.044C184.295 119.589 183.884 120.313 183.688 121.217H189.884C189.895 121.125 189.9 120.991 189.9 120.817C189.9 120.005 189.653 119.373 189.16 118.921C188.667 118.459 188.009 118.227 187.187 118.227ZM200.751 117.626L199.133 125.672H198.362L199.826 118.32H194.324L192.875 125.672H192.105L193.707 117.626H200.751ZM208.98 118.32H205.821L204.372 125.672H203.601L205.05 118.32H201.937L202.075 117.626H209.119L208.98 118.32ZM218.182 117.626H218.953L217.335 125.672H216.564L218.182 117.626ZM212.973 120.539C214.761 120.539 215.655 121.248 215.655 122.666C215.655 123.262 215.501 123.791 215.192 124.254C214.894 124.706 214.468 125.055 213.913 125.302C213.358 125.548 212.711 125.672 211.971 125.672H208.842L210.445 117.642H211.216L210.646 120.539H212.973ZM211.971 125.071C212.844 125.071 213.548 124.855 214.083 124.423C214.627 123.992 214.899 123.421 214.899 122.712C214.899 122.178 214.72 121.783 214.36 121.526C214.011 121.269 213.471 121.14 212.742 121.14H210.522L209.736 125.071H211.971ZM74.6694 133.626H75.44L74.7002 137.294H80.1717L80.9115 133.626H81.6821L80.0638 141.672H79.2932L80.0484 137.973H74.5769L73.8371 141.672H73.0664L74.6694 133.626ZM91.9615 133.626L90.3586 141.672H89.6188L89.927 140.1C89.5366 140.613 89.0485 141.014 88.4628 141.302C87.8874 141.589 87.2452 141.733 86.5363 141.733C85.4882 141.733 84.6456 141.435 84.0086 140.839C83.3818 140.233 83.0684 139.416 83.0684 138.389C83.0684 137.474 83.2636 136.652 83.6541 135.923C84.0445 135.183 84.584 134.607 85.2724 134.196C85.9711 133.775 86.752 133.565 87.6151 133.565C88.4474 133.565 89.1359 133.744 89.6804 134.104C90.225 134.464 90.5949 134.972 90.7902 135.63L91.1909 133.626H91.9615ZM86.6904 141.04C87.4096 141.04 88.0518 140.865 88.617 140.516C89.1924 140.166 89.6445 139.683 89.9733 139.067C90.3021 138.44 90.4665 137.736 90.4665 136.955C90.4665 136.103 90.2147 135.44 89.7113 134.967C89.2181 134.494 88.5194 134.258 87.6151 134.258C86.8959 134.258 86.2486 134.438 85.6732 134.798C85.108 135.147 84.6611 135.635 84.3323 136.262C84.0034 136.878 83.839 137.572 83.839 138.342C83.839 139.195 84.0856 139.858 84.5789 140.331C85.0823 140.803 85.7862 141.04 86.6904 141.04ZM101.152 137.587L103.849 141.672H102.971L100.536 137.942H98.5475L97.7923 141.672H97.0217L98.64 133.626H99.4106L98.6708 137.279H100.582L104.358 133.626H105.267L101.152 137.587ZM114.05 133.626L112.447 141.672H111.708L112.016 140.1C111.625 140.613 111.137 141.014 110.552 141.302C109.976 141.589 109.334 141.733 108.625 141.733C107.577 141.733 106.735 141.435 106.097 140.839C105.471 140.233 105.157 139.416 105.157 138.389C105.157 137.474 105.353 136.652 105.743 135.923C106.133 135.183 106.673 134.607 107.361 134.196C108.06 133.775 108.841 133.565 109.704 133.565C110.536 133.565 111.225 133.744 111.769 134.104C112.314 134.464 112.684 134.972 112.879 135.63L113.28 133.626H114.05ZM108.779 141.04C109.499 141.04 110.141 140.865 110.706 140.516C111.281 140.166 111.733 139.683 112.062 139.067C112.391 138.44 112.555 137.736 112.555 136.955C112.555 136.103 112.304 135.44 111.8 134.967C111.307 134.494 110.608 134.258 109.704 134.258C108.985 134.258 108.337 134.438 107.762 134.798C107.197 135.147 106.75 135.635 106.421 136.262C106.092 136.878 105.928 137.572 105.928 138.342C105.928 139.195 106.175 139.858 106.668 140.331C107.171 140.803 107.875 141.04 108.779 141.04ZM123.721 137.618L125.895 141.672H125.001L123.028 137.911H121.163L120.408 141.672H119.637L120.392 137.911H118.543L115.106 141.672H114.135L117.973 137.526L116 133.626H116.817L118.635 137.279H120.516L121.255 133.626H122.026L121.286 137.279H123.167L126.419 133.626H127.313L123.721 137.618ZM134.012 140.993H135.306L134.782 143.675H134.042L134.428 141.672H126.814L126.429 143.675H125.689L126.228 140.993H126.66C127.215 140.963 127.682 140.531 128.062 139.699C128.442 138.867 128.818 137.716 129.187 136.246L129.835 133.626H135.491L134.012 140.993ZM129.881 136.354C129.573 137.598 129.264 138.615 128.956 139.406C128.658 140.187 128.293 140.716 127.862 140.993H133.241L134.582 134.32H130.39L129.881 136.354ZM146.445 133.626H147.216L145.597 141.672H144.827L146.445 133.626ZM141.235 136.539C143.023 136.539 143.917 137.248 143.917 138.666C143.917 139.262 143.763 139.791 143.455 140.254C143.157 140.706 142.73 141.055 142.176 141.302C141.621 141.548 140.973 141.672 140.234 141.672H137.105L138.708 133.642H139.478L138.908 136.539H141.235ZM140.234 141.071C141.107 141.071 141.811 140.855 142.345 140.423C142.89 139.992 143.162 139.421 143.162 138.712C143.162 138.178 142.982 137.783 142.623 137.526C142.273 137.269 141.734 137.14 141.004 137.14H138.785L137.999 141.071H140.234ZM150.215 133.626H150.986L149.599 140.531L156.658 133.626H157.413L155.795 141.672H155.009L156.411 134.751L149.337 141.672H148.597L150.215 133.626ZM154.099 132.378C153.503 132.378 153.031 132.239 152.681 131.962C152.342 131.684 152.173 131.309 152.173 130.837C152.173 130.775 152.183 130.662 152.203 130.497H152.774C152.763 130.549 152.758 130.631 152.758 130.744C152.758 131.083 152.882 131.361 153.128 131.576C153.375 131.782 153.709 131.885 154.13 131.885C154.592 131.885 154.993 131.761 155.332 131.515C155.671 131.258 155.897 130.919 156.01 130.497H156.565C156.442 131.083 156.159 131.546 155.718 131.885C155.276 132.213 154.736 132.378 154.099 132.378ZM168.857 140.993H170.151L169.627 143.675H168.888L169.273 141.672H161.659L161.274 143.675H160.534L161.073 140.993H161.505C162.06 140.963 162.527 140.531 162.908 139.699C163.288 138.867 163.663 137.716 164.033 136.246L164.68 133.626H170.336L168.857 140.993ZM164.726 136.354C164.418 137.598 164.11 138.615 163.801 139.406C163.503 140.187 163.139 140.716 162.707 140.993H168.086L169.427 134.32H165.235L164.726 136.354ZM172.736 137.818C172.716 138.045 172.705 138.214 172.705 138.327C172.705 139.2 172.957 139.873 173.46 140.346C173.964 140.809 174.704 141.04 175.68 141.04C176.245 141.04 176.764 140.947 177.237 140.762C177.72 140.567 178.12 140.3 178.439 139.961L178.793 140.5C178.434 140.891 177.971 141.194 177.406 141.41C176.851 141.625 176.255 141.733 175.618 141.733C174.478 141.733 173.579 141.435 172.921 140.839C172.274 140.243 171.95 139.416 171.95 138.358C171.95 137.454 172.14 136.637 172.52 135.907C172.9 135.178 173.425 134.607 174.092 134.196C174.76 133.775 175.51 133.565 176.343 133.565C177.391 133.565 178.223 133.863 178.84 134.459C179.456 135.054 179.764 135.876 179.764 136.925C179.764 137.171 179.733 137.469 179.672 137.818H172.736ZM176.327 134.227C175.454 134.227 174.699 134.5 174.062 135.044C173.435 135.589 173.024 136.313 172.829 137.217H179.024C179.035 137.125 179.04 136.991 179.04 136.817C179.04 136.005 178.793 135.373 178.3 134.921C177.807 134.459 177.149 134.227 176.327 134.227ZM182.848 133.626H183.618L182.878 137.294H188.35L189.09 133.626H189.86L188.242 141.672H187.471L188.227 137.973H182.755L182.015 141.672H181.245L182.848 133.626ZM195.408 136.539C197.196 136.539 198.09 137.248 198.09 138.666C198.09 139.262 197.936 139.791 197.627 140.254C197.329 140.706 196.903 141.055 196.348 141.302C195.793 141.548 195.146 141.672 194.406 141.672H191.247L192.849 133.642H193.62L193.05 136.539H195.408ZM194.406 141.071C195.29 141.071 195.999 140.855 196.533 140.423C197.067 139.992 197.335 139.421 197.335 138.712C197.335 138.178 197.16 137.783 196.811 137.526C196.461 137.269 195.922 137.14 195.192 137.14H192.927L192.141 141.071H194.406Z" fill="#A6ED49"/>
</svg>
