<svg width="24" height="24" viewBox="0 0 24 24" fill="none" xmlns="http://www.w3.org/2000/svg">
<path d="M12.3999 3.06885C14.5917 3.06885 16.3472 4.80864 16.3472 6.92822C16.3471 9.04778 14.5916 10.7876 12.3999 10.7876C10.2082 10.7875 8.45364 9.04772 8.45361 6.92822C8.45361 4.8087 10.2082 3.06895 12.3999 3.06885Z" stroke="#A6ED49" stroke-width="1.33752"/>
<path d="M15.894 12.9788C17.5692 13.1053 19.0436 14.1681 19.6851 15.7415L22.3999 22.3997H2.3999L5.11475 15.7415C5.79886 14.0635 7.43063 12.9663 9.24268 12.9661H15.5571L15.894 12.9788ZM9.24268 14.304C7.97432 14.3042 6.83188 15.0718 6.35303 16.2463L4.38916 21.0627H20.4106L18.4468 16.2463C17.9678 15.0717 16.8256 14.304 15.5571 14.304H9.24268Z" fill="#A6ED49"/>
</svg>
