<svg width="310" height="205" viewBox="0 0 310 205" fill="none" xmlns="http://www.w3.org/2000/svg">
<path fill-rule="evenodd" clip-rule="evenodd" d="M1.80271 141.312C18.7849 120.81 44.3939 113.964 66.5 118.79C88.7484 123.647 107.98 140.53 110.96 167.344L95.6709 169.043C93.5227 149.71 79.9759 137.477 63.2197 133.818C46.3211 130.129 26.6991 135.37 13.6494 151.125L7.72556 146.219L1.80271 141.312ZM125.71 0.00195312L125.714 0.0136719C125.716 0.0208195 125.719 0.0308638 125.723 0.0429688C125.73 0.0676162 125.742 0.10272 125.756 0.147461C125.784 0.237229 125.823 0.367335 125.875 0.535156C125.978 0.871298 126.127 1.36076 126.314 1.98926C126.69 3.24639 127.221 5.06204 127.853 7.32422C128.401 9.28375 129.024 11.5831 129.689 14.1475C144.226 5.80967 162.136 4.58497 180.422 13.7412C189.931 18.5027 196.546 24.9485 200.689 32.7861C204.772 40.5099 206.167 49.0372 206.21 57.5752C206.253 66.0841 204.952 75.0032 203.317 83.7354C202.496 88.1209 201.571 92.557 200.664 96.917C199.752 101.305 198.856 105.623 198.061 109.904L182.937 107.096C183.767 102.627 184.696 98.1516 185.604 93.7852C186.518 89.391 187.41 85.1116 188.197 80.9053C189.779 72.4538 190.864 64.6795 190.828 57.6533C190.793 50.6564 189.644 44.8058 187.091 39.9756C184.598 35.2594 180.482 30.9739 173.534 27.4951C158.33 19.882 144.342 21.9518 133.451 30.0361C136.229 43.086 138.731 58.6713 138.462 71.9082C138.312 79.2622 137.305 86.6945 134.424 92.6904C131.353 99.082 125.921 104.145 117.691 104.985C108.182 105.957 100.099 103.203 95.499 95.8887C91.4305 89.4188 91.3217 81.1437 92.4629 73.7979C94.7942 58.7912 103.394 41.0627 112.284 29.5488C113.604 27.8389 114.998 26.2049 116.461 24.6553C115.213 19.457 114.003 14.9124 113.039 11.4648C112.433 9.2977 111.927 7.56859 111.575 6.38867C111.399 5.79897 111.261 5.34674 111.169 5.0459C111.123 4.89555 111.088 4.78287 111.065 4.70996C111.054 4.67389 111.046 4.6473 111.041 4.63086L111.034 4.61035L125.71 0V0.00195312ZM33.7422 0.0234375C33.7435 0.0276598 33.7459 0.033188 33.748 0.0400391C33.7524 0.0540617 33.7579 0.0737953 33.7656 0.0986328C33.7811 0.14868 33.8036 0.220729 33.832 0.313477C33.889 0.499363 33.9712 0.77016 34.0761 1.11914C34.2862 1.81761 34.5877 2.83271 34.958 4.11914C35.6753 6.61094 36.6534 10.1292 37.7383 14.3516C41.581 12.2292 45.6854 10.6016 50.0215 9.52734C61.8495 6.597 74.801 7.91281 88.0175 13.542C96.774 17.2716 103.156 22.8399 107.771 29.3398C104.147 33.4883 100.949 38.942 98.4697 43.8467C95.0974 36.7596 89.8385 31.0376 81.9892 27.6943C71.3452 23.1609 61.8177 22.453 53.7207 24.459C49.3587 25.5397 45.239 27.4516 41.4443 30.1797C42.5951 35.6528 43.6832 41.5107 44.541 47.4141C46.2652 59.2805 47.1708 72.0221 45.4179 82.3145C44.5397 87.4712 42.8938 92.6452 39.8095 96.8232C36.5434 101.247 31.8408 104.279 25.8174 104.975C16.3512 106.067 8.26003 103.371 3.65622 96.0381C-0.390597 89.5924 -0.512319 81.3141 0.604464 73.9609C2.88824 58.9245 11.3956 41.0941 20.3095 29.5488C21.6237 27.8467 23.0077 26.2321 24.4541 24.708C23.9396 22.543 23.4311 20.4869 22.9414 18.5723C21.8585 14.3388 20.8807 10.8229 20.1758 8.37402C19.8235 7.15029 19.5395 6.19417 19.3457 5.5498C19.2489 5.22809 19.1752 4.98389 19.1259 4.82324C19.1014 4.74305 19.082 4.6834 19.0703 4.64551C19.0644 4.62661 19.0611 4.61256 19.0586 4.60449C19.0573 4.60056 19.056 4.59798 19.0556 4.59668V4.5957C19.0686 4.59213 19.369 4.49905 26.3974 2.30566C33.4735 0.097408 33.7304 0.018747 33.7402 0.0175781C33.7405 0.0186314 33.7415 0.0213169 33.7422 0.0234375ZM28.5312 44.6221C22.4983 54.1325 17.3162 66.3634 15.8115 76.2705C14.8734 82.4472 15.6073 86.1451 16.6836 87.8594C17.203 88.6866 18.5029 90.3341 24.0537 89.6934C25.5388 89.5219 26.5144 88.9339 27.4345 87.6875C28.5365 86.1947 29.5872 83.6457 30.2539 79.7314C31.5907 71.8812 30.9839 61.0825 29.3193 49.626C29.0764 47.9545 28.8103 46.2835 28.5312 44.6221ZM120.574 44.498C114.475 54.0242 109.201 66.2574 107.663 76.1592C106.71 82.2972 107.436 85.9757 108.52 87.7002C109.074 88.5795 110.462 90.2615 116.129 89.6826C117.914 89.5002 119.273 88.7057 120.559 86.0293C122.035 82.957 122.95 78.1089 123.083 71.5947C123.249 63.4132 122.172 53.862 120.574 44.498Z" fill="#A6ED49"/>
<path d="M127.902 189.739C128.771 189.739 129.545 189.918 130.222 190.276C130.9 190.622 131.431 191.127 131.814 191.791C132.198 192.444 132.39 193.217 132.39 194.112C132.39 195.263 132.14 196.292 131.642 197.2C131.143 198.108 130.452 198.824 129.57 199.348C128.701 199.859 127.723 200.115 126.636 200.115C125.766 200.115 125.018 199.962 124.392 199.655C123.765 199.335 123.286 198.875 122.954 198.274L121.88 203.721H120.038L122.8 189.835H124.565L124.315 191.101C125.261 190.193 126.457 189.739 127.902 189.739ZM126.559 198.504C127.314 198.504 127.991 198.325 128.592 197.967C129.193 197.596 129.666 197.085 130.011 196.433C130.357 195.781 130.529 195.039 130.529 194.208C130.529 193.3 130.267 192.597 129.743 192.098C129.219 191.6 128.471 191.35 127.499 191.35C126.745 191.35 126.061 191.536 125.447 191.907C124.846 192.265 124.373 192.77 124.028 193.422C123.695 194.074 123.529 194.815 123.529 195.646C123.529 196.541 123.791 197.245 124.315 197.756C124.852 198.255 125.6 198.504 126.559 198.504ZM135.656 195.493V195.608C135.656 196.554 135.924 197.277 136.461 197.775C136.998 198.261 137.804 198.504 138.878 198.504C139.504 198.504 140.092 198.402 140.642 198.197C141.192 197.98 141.652 197.692 142.023 197.334L142.809 198.657C142.311 199.118 141.704 199.476 140.987 199.731C140.271 199.987 139.517 200.115 138.724 200.115C137.727 200.115 136.864 199.936 136.135 199.578C135.406 199.22 134.844 198.709 134.448 198.044C134.051 197.379 133.853 196.599 133.853 195.704C133.853 194.566 134.096 193.543 134.582 192.635C135.08 191.728 135.764 191.018 136.634 190.506C137.516 189.995 138.501 189.739 139.587 189.739C140.968 189.739 142.068 190.136 142.886 190.928C143.717 191.708 144.133 192.776 144.133 194.131C144.133 194.54 144.088 194.994 143.999 195.493H135.656ZM139.511 191.274C138.603 191.274 137.823 191.529 137.171 192.041C136.519 192.552 136.078 193.255 135.848 194.15H142.407C142.458 193.243 142.215 192.539 141.678 192.041C141.154 191.529 140.431 191.274 139.511 191.274ZM155.006 198.389H156.598L155.793 202.436H154.066L154.565 200H145.436L147.469 189.835H149.31L147.603 198.389H153.165L154.872 189.835H156.713L155.006 198.389ZM160.287 195.493V195.608C160.287 196.554 160.556 197.277 161.093 197.775C161.63 198.261 162.435 198.504 163.509 198.504C164.136 198.504 164.724 198.402 165.274 198.197C165.823 197.98 166.284 197.692 166.655 197.334L167.441 198.657C166.942 199.118 166.335 199.476 165.619 199.731C164.903 199.987 164.148 200.115 163.356 200.115C162.358 200.115 161.495 199.936 160.767 199.578C160.038 199.22 159.475 198.709 159.079 198.044C158.683 197.379 158.484 196.599 158.484 195.704C158.484 194.566 158.727 193.543 159.213 192.635C159.712 191.728 160.396 191.018 161.265 190.506C162.147 189.995 163.132 189.739 164.219 189.739C165.6 189.739 166.699 190.136 167.518 190.928C168.349 191.708 168.764 192.776 168.764 194.131C168.764 194.54 168.719 194.994 168.63 195.493H160.287ZM164.142 191.274C163.234 191.274 162.454 191.529 161.802 192.041C161.15 192.552 160.709 193.255 160.479 194.15H167.038C167.089 193.243 166.846 192.539 166.309 192.041C165.785 191.529 165.063 191.274 164.142 191.274ZM181.517 189.835L179.484 200H177.643L179.312 191.446H173.596L171.908 200H170.067L172.1 189.835H181.517ZM192.078 191.446H188.319L186.65 200H184.809L186.478 191.446H182.795L183.102 189.835H192.385L192.078 191.446ZM198.877 189.835H200.718L199.855 194.15H205.647L206.51 189.835H208.352L206.319 200H204.478L205.341 195.742H199.549L198.685 200H196.844L198.877 189.835ZM211.508 195.493V195.608C211.508 196.554 211.777 197.277 212.314 197.775C212.851 198.261 213.656 198.504 214.73 198.504C215.357 198.504 215.945 198.402 216.495 198.197C217.045 197.98 217.505 197.692 217.876 197.334L218.662 198.657C218.163 199.118 217.556 199.476 216.84 199.731C216.124 199.987 215.37 200.115 214.577 200.115C213.58 200.115 212.716 199.936 211.988 199.578C211.259 199.22 210.696 198.709 210.3 198.044C209.904 197.379 209.705 196.599 209.705 195.704C209.705 194.566 209.948 193.543 210.434 192.635C210.933 191.728 211.617 191.018 212.486 190.506C213.369 189.995 214.353 189.739 215.44 189.739C216.821 189.739 217.92 190.136 218.739 190.928C219.57 191.708 219.985 192.776 219.985 194.131C219.985 194.54 219.941 194.994 219.851 195.493H211.508ZM215.363 191.274C214.455 191.274 213.675 191.529 213.023 192.041C212.371 192.552 211.93 193.255 211.7 194.15H218.259C218.31 193.243 218.067 192.539 217.53 192.041C217.006 191.529 216.284 191.274 215.363 191.274ZM228.201 189.835H230.043L229.18 194.15H234.972L235.835 189.835H237.676L235.643 200H233.802L234.665 195.742H228.873L228.01 200H226.169L228.201 189.835ZM250.633 189.835L248.619 200H246.855L247.104 198.753C246.644 199.188 246.107 199.527 245.493 199.77C244.892 200 244.233 200.115 243.517 200.115C242.648 200.115 241.874 199.942 241.197 199.597C240.519 199.239 239.989 198.728 239.605 198.063C239.221 197.398 239.03 196.618 239.03 195.723C239.03 194.572 239.279 193.543 239.778 192.635C240.276 191.728 240.96 191.018 241.83 190.506C242.712 189.995 243.696 189.739 244.783 189.739C245.653 189.739 246.394 189.893 247.008 190.2C247.635 190.506 248.114 190.96 248.446 191.561L248.792 189.835H250.633ZM243.92 198.504C244.675 198.504 245.352 198.325 245.953 197.967C246.567 197.596 247.04 197.085 247.372 196.433C247.718 195.781 247.89 195.039 247.89 194.208C247.89 193.3 247.628 192.597 247.104 192.098C246.58 191.6 245.832 191.35 244.86 191.35C244.106 191.35 243.428 191.536 242.827 191.907C242.226 192.265 241.753 192.77 241.408 193.422C241.063 194.074 240.89 194.815 240.89 195.646C240.89 196.541 241.152 197.245 241.676 197.756C242.213 198.255 242.961 198.504 243.92 198.504ZM253.976 189.835H255.836L254.302 197.43L261.973 189.835H263.719L261.705 200H259.825L261.379 192.405L253.707 200H251.924L253.976 189.835ZM259.135 188.454C258.278 188.454 257.62 188.275 257.159 187.917C256.699 187.559 256.469 187.061 256.469 186.421C256.469 186.23 256.488 186.038 256.527 185.846H257.773C257.748 185.999 257.735 186.115 257.735 186.191C257.735 186.588 257.863 186.901 258.118 187.131C258.387 187.348 258.758 187.457 259.231 187.457C259.755 187.457 260.196 187.316 260.554 187.035C260.925 186.754 261.168 186.357 261.283 185.846H262.549C262.382 186.703 262.005 187.355 261.417 187.802C260.829 188.237 260.068 188.454 259.135 188.454ZM274.117 198.389H275.671L274.884 202.359H273.158L273.619 200H265.122L264.643 202.359H262.917L263.703 198.389H264.163C264.841 198.351 265.397 197.878 265.832 196.97C266.279 196.049 266.708 194.796 267.117 193.211L267.922 189.835H275.824L274.117 198.389ZM268.766 193.479C268.434 194.796 268.114 195.857 267.807 196.663C267.5 197.456 267.117 198.031 266.657 198.389H272.276L273.657 191.446H269.246L268.766 193.479ZM279.353 195.493V195.608C279.353 196.554 279.621 197.277 280.158 197.775C280.695 198.261 281.501 198.504 282.575 198.504C283.201 198.504 283.789 198.402 284.339 198.197C284.889 197.98 285.349 197.692 285.72 197.334L286.506 198.657C286.008 199.118 285.4 199.476 284.684 199.731C283.968 199.987 283.214 200.115 282.421 200.115C281.424 200.115 280.561 199.936 279.832 199.578C279.103 199.22 278.541 198.709 278.144 198.044C277.748 197.379 277.55 196.599 277.55 195.704C277.55 194.566 277.793 193.543 278.279 192.635C278.777 191.728 279.461 191.018 280.331 190.506C281.213 189.995 282.198 189.739 283.284 189.739C284.665 189.739 285.765 190.136 286.583 190.928C287.414 191.708 287.83 192.776 287.83 194.131C287.83 194.54 287.785 194.994 287.695 195.493H279.353ZM283.208 191.274C282.3 191.274 281.52 191.529 280.868 192.041C280.216 192.552 279.775 193.255 279.545 194.15H286.104C286.155 193.243 285.912 192.539 285.375 192.041C284.851 191.529 284.128 191.274 283.208 191.274ZM291.166 189.835H293.007L292.144 194.15H297.936L298.799 189.835H300.64L298.607 200H296.766L297.629 195.742H291.837L290.974 200H289.133L291.166 189.835Z" fill="#A6ED49"/>
<path d="M180.351 169.657H172.335L170.267 180H150.529L152.598 169.657H121.31L123.896 156.729L156.218 119.667H177.765L148.805 153.884H156.735L158.545 144.662H177.334L175.524 153.884H183.54L180.351 169.657ZM208.606 181.379C203.894 181.379 199.785 180.46 196.28 178.621C192.775 176.725 190.046 174.024 188.092 170.519C186.196 166.956 185.248 162.704 185.248 157.763C185.248 150.293 186.656 143.57 189.471 137.594C192.287 131.561 196.165 126.849 201.107 123.459C206.106 120.011 211.708 118.288 217.914 118.288C222.626 118.288 226.734 119.236 230.239 121.132C233.744 122.971 236.445 125.671 238.341 129.234C240.295 132.739 241.272 136.962 241.272 141.904C241.272 149.374 239.864 156.125 237.048 162.159C234.233 168.134 230.326 172.846 225.326 176.294C220.385 179.684 214.811 181.379 208.606 181.379ZM210.674 165.089C212.858 165.089 214.725 163.825 216.276 161.297C217.828 158.768 218.977 155.752 219.724 152.247C220.529 148.684 220.931 145.409 220.931 142.421C220.931 137.192 219.236 134.578 215.846 134.578C213.662 134.578 211.795 135.842 210.243 138.37C208.692 140.898 207.514 143.944 206.709 147.506C205.962 151.011 205.589 154.258 205.589 157.246C205.589 162.475 207.284 165.089 210.674 165.089ZM298.958 169.657H290.942L288.873 180H269.136L271.204 169.657H239.917L242.503 156.729L274.824 119.667H296.372L267.412 153.884H275.341L277.151 144.662H295.941L294.131 153.884H302.147L298.958 169.657Z" fill="#F8FFEE"/>
</svg>
