<svg width="67" height="67" viewBox="0 0 67 67" fill="none" xmlns="http://www.w3.org/2000/svg">
<rect width="67" height="67" rx="33.5" fill="#01311C"/>
<path d="M17.0201 17C17.0201 17 23.1605 36.6761 16.7059 37.4211C10.2514 38.1662 13.4699 28.4627 17.0201 23.8645C19.9533 20.0655 24.4866 18.7513 29.6142 20.9353C38.3503 24.6562 34.3797 38.8797 34.3797 38.8797" stroke="#A6ED49" stroke-width="3.30557"/>
<path d="M35.7528 21.7221C33.3017 23.1681 31.3454 28.5694 31.3454 28.5694L27.8037 38.8009L43.5445 40.1388L45.3547 28.7268C45.3547 28.7268 38.2039 20.2761 35.7528 21.7221Z" fill="#013125"/>
<path d="M36.7856 17C36.7856 17 42.9945 36.7548 36.4714 37.4211C29.9482 38.0875 33.2353 28.4627 36.7856 23.8645C39.7187 20.0655 44.4529 18.3297 49.3796 20.9353C56.3741 24.6344 54.013 32.7409 52.5963 43.0511" stroke="#A6ED49" stroke-width="3.30557"/>
<path d="M14.4248 41.7129C15.6913 51.6349 30.6179 54.2335 38.036 46.4377" stroke="#A6ED49" stroke-width="3.30557"/>
<path d="M49.8418 42.5002H55.0363V43.6021H49.8418V42.5002Z" fill="#013125"/>
</svg>
