<svg width="20" height="20" viewBox="0 0 20 20" fill="none" xmlns="http://www.w3.org/2000/svg">
<path d="M9.6 4.40043L9.16768 4.81651C9.2808 4.93403 9.43688 5.00043 9.6 5.00043C9.76312 5.00043 9.9192 4.93403 10.0323 4.81651L9.6 4.40043ZM7.54084 14.6574C6.32831 13.7016 5.00246 12.7682 3.95063 11.5838C2.91938 10.4225 2.2 9.06753 2.2 7.30961H1C1 9.44201 1.8884 11.0688 3.05338 12.3806C4.19778 13.6692 5.65662 14.7001 6.79794 15.5998L7.54084 14.6574ZM2.2 7.30961C2.2 5.58891 3.1723 4.14594 4.49949 3.53928C5.78886 2.94991 7.52133 3.10599 9.16768 4.81651L10.0323 3.98435C8.0788 1.95474 5.81127 1.62024 4.00061 2.4479C2.22777 3.25826 1 5.13995 1 7.30961H2.2ZM6.79794 15.5998C7.20772 15.9229 7.64763 16.2674 8.09344 16.5278C8.53912 16.7882 9.04768 16.9999 9.6 16.9999V15.7999C9.35232 15.7999 9.06088 15.7034 8.69888 15.4918C8.33704 15.2803 7.96166 14.9892 7.54084 14.6574L6.79794 15.5998ZM12.4021 15.5998C13.5434 14.7001 15.0022 13.6692 16.1466 12.3806C17.3116 11.0688 18.2 9.44201 18.2 7.30961H17C17 9.06753 16.2806 10.4225 15.2494 11.5838C14.1975 12.7682 12.8717 13.7016 11.6592 14.6574L12.4021 15.5998ZM18.2 7.30961C18.2 5.13995 16.9722 3.25826 15.1994 2.4479C13.3887 1.62024 11.1212 1.95474 9.16768 3.98435L10.0323 4.81651C11.6786 3.10599 13.4111 2.94991 14.7005 3.53928C16.0277 4.14594 17 5.58891 17 7.30961H18.2ZM11.6592 14.6574C11.2383 14.9892 10.863 15.2803 10.5011 15.4918C10.1391 15.7034 9.84768 15.7999 9.6 15.7999V16.9999C10.1523 16.9999 10.6609 16.7882 11.1066 16.5278C11.5524 16.2674 11.9922 15.9229 12.4021 15.5998L11.6592 14.6574Z" fill="#01311C"/>
</svg>
