<svg width="22" height="18" viewBox="0 0 22 18" fill="none" xmlns="http://www.w3.org/2000/svg">
<path d="M3.20801 4.04175L9.2694 9.05808C9.6085 9.3387 10.0992 9.33871 10.4383 9.05808L16.4997 4.04175" stroke="#013125" stroke-width="0.6875"/>
<path d="M16.042 3.69824C16.738 3.69842 17.3018 4.26298 17.3018 4.95898V8.625H16.6143V4.95898C16.6143 4.64268 16.3583 4.38592 16.042 4.38574H3.66699C3.35058 4.38574 3.09375 4.64257 3.09375 4.95898V13.209C3.09406 13.5251 3.35077 13.7812 3.66699 13.7812H9.625V14.4688H3.66699C2.97107 14.4688 2.40656 13.9048 2.40625 13.209V4.95898C2.40625 4.26287 2.97088 3.69824 3.66699 3.69824H16.042Z" fill="#013125"/>
<path d="M11.458 12.7499H18.7913" stroke="#013125" stroke-width="0.6875" stroke-linecap="round"/>
<path d="M16.042 15.0417L18.792 12.7501L16.042 10.4584" stroke="#013125" stroke-width="0.6875" stroke-linecap="round"/>
</svg>
