<svg width="37" height="28" viewBox="0 0 37 28" fill="none" xmlns="http://www.w3.org/2000/svg">
<path fill-rule="evenodd" clip-rule="evenodd" d="M7.48096 7.13477H31.7153L30.2819 12.8795C29.7679 14.9393 27.9175 16.3848 25.7945 16.3848H9.78899L7.48096 7.13477Z" stroke="#F8FFEE" stroke-width="1.15625" stroke-linecap="round" stroke-linejoin="round"/>
<path fill-rule="evenodd" clip-rule="evenodd" d="M12.8261 26.1784C13.706 26.1784 14.4193 25.4651 14.4193 24.5852C14.4193 23.7052 13.706 22.9919 12.8261 22.9919C11.9462 22.9919 11.2329 23.7052 11.2329 24.5852C11.2329 25.4651 11.9462 26.1784 12.8261 26.1784Z" stroke="#A6ED49" stroke-width="1.15625"/>
<path fill-rule="evenodd" clip-rule="evenodd" d="M26.0395 26.1784C26.9194 26.1784 27.6327 25.4651 27.6327 24.5852C27.6327 23.7052 26.9194 22.9919 26.0395 22.9919C25.1596 22.9919 24.4463 23.7052 24.4463 24.5852C24.4463 25.4651 25.1596 26.1784 26.0395 26.1784Z" stroke="#A6ED49" stroke-width="1.15625"/>
<path d="M7.59982 7.46474L6.60875 3.83081H3.30518" stroke="#F8FFEE" stroke-width="1.15625" stroke-linecap="round"/>
<path d="M9.57959 15.7239L10.5707 20.0185H28.0796" stroke="#F8FFEE" stroke-width="1.15625" stroke-linecap="round"/>
</svg>
