<svg width="38" height="38" viewBox="0 0 38 38" fill="none" xmlns="http://www.w3.org/2000/svg">
<path d="M19.7305 9.24912L18.8856 10.102C19.1067 10.3429 19.4117 10.4791 19.7305 10.4791C20.0493 10.4791 20.3544 10.3429 20.5755 10.102L19.7305 9.24912ZM15.7062 30.275C13.3364 28.3156 10.7452 26.4021 8.68952 23.9742C6.67405 21.5937 5.26811 18.8162 5.26811 15.2126H2.92285C2.92285 19.5838 4.65913 22.9186 6.93593 25.6076C9.17255 28.2492 12.0237 30.3624 14.2542 32.2068L15.7062 30.275ZM5.26811 15.2126C5.26811 11.6854 7.16835 8.72744 9.76219 7.48384C12.2821 6.2757 15.668 6.59565 18.8856 10.102L20.5755 8.3962C16.7575 4.2357 12.3259 3.55 8.78719 5.24661C5.32238 6.90779 2.92285 10.7651 2.92285 15.2126H5.26811ZM14.2542 32.2068C15.0551 32.869 15.9149 33.5752 16.7861 34.1091C17.6572 34.6429 18.6511 35.0768 19.7305 35.0768V32.6169C19.2465 32.6169 18.6769 32.419 17.9694 31.9853C17.2622 31.5518 16.5286 30.9551 15.7062 30.275L14.2542 32.2068ZM25.2069 32.2068C27.4374 30.3624 30.2886 28.2492 32.5252 25.6076C34.802 22.9186 36.5382 19.5838 36.5382 15.2126H34.193C34.193 18.8162 32.7871 21.5937 30.7716 23.9742C28.7159 26.4021 26.1247 28.3156 23.755 30.275L25.2069 32.2068ZM36.5382 15.2126C36.5382 10.7651 34.1387 6.90779 30.6738 5.24661C27.1352 3.55 22.7036 4.2357 18.8856 8.3962L20.5755 10.102C23.793 6.59565 27.1789 6.2757 29.6988 7.48384C32.2927 8.72744 34.193 11.6854 34.193 15.2126H36.5382ZM23.755 30.275C22.9324 30.9551 22.1989 31.5518 21.4917 31.9853C20.7842 32.419 20.2146 32.6169 19.7305 32.6169V35.0768C20.81 35.0768 21.8039 34.6429 22.6749 34.1091C23.5463 33.5752 24.4059 32.869 25.2069 32.2068L23.755 30.275Z" fill="#A6ED49"/>
</svg>
