<svg width="38" height="38" viewBox="0 0 38 38" fill="none" xmlns="http://www.w3.org/2000/svg">
<path fill-rule="evenodd" clip-rule="evenodd" d="M15.0911 3.42435C17.3294 1.46629 20.6712 1.4663 22.9096 3.42437L33.452 12.6465C35.0846 14.0746 36.0212 16.1381 36.0212 18.3071V31.6657C36.0212 34.945 33.3629 37.6032 30.0837 37.6032H7.91699C4.6378 37.6032 1.97949 34.945 1.97949 31.6657V18.3071C1.97949 16.1381 2.916 14.0746 4.54859 12.6465L15.0911 3.42435ZM21.3459 5.21194C20.0029 4.0371 17.9978 4.0371 16.6548 5.21194L6.11229 14.4341C4.99525 15.4112 4.35449 16.8231 4.35449 18.3071V31.6657C4.35449 33.6332 5.94948 35.2282 7.91699 35.2282H30.0837C32.0511 35.2282 33.6462 33.6332 33.6462 31.6657V18.3071C33.6462 16.8231 33.0054 15.4112 31.8883 14.4341L21.3459 5.21194Z" fill="#F8FFEE" fill-opacity="0.7"/>
</svg>
