<svg width="24" height="18" viewBox="0 0 24 18" fill="none" xmlns="http://www.w3.org/2000/svg">
<g clip-path="url(#clip0_52_1939)">
<path d="M13.625 3.62524L13.625 3.08358C13.625 2.18611 12.8975 1.45858 12 1.45858C11.1025 1.45858 10.375 2.18611 10.375 3.08358L10.375 3.62524" stroke="#013125" stroke-width="0.815789"/>
<line x1="20.668" y1="13.7836" x2="3.33463" y2="13.7836" stroke="#013125" stroke-width="0.815789"/>
<line x1="18.501" y1="15.9504" x2="5.50098" y2="15.9504" stroke="#013125" stroke-width="0.815789"/>
<path d="M11.999 4.16699C16.1871 4.16699 19.5828 7.56199 19.583 11.75V12.292H18.583V11.75C18.5828 8.11428 15.6348 5.16699 11.999 5.16699C8.36341 5.16717 5.41619 8.11438 5.41602 11.75V12.292H4.41602V11.75C4.41619 7.5621 7.81112 4.16717 11.999 4.16699Z" fill="#013125"/>
</g>
<defs>
<clipPath id="clip0_52_1939">
<rect width="24" height="18" fill="white"/>
</clipPath>
</defs>
</svg>
