<svg width="14" height="14" viewBox="0 0 14 14" fill="none" xmlns="http://www.w3.org/2000/svg">
<path d="M6.73653 1.09912C6.57758 1.09912 6.44911 1.22789 6.44911 1.38654V4.54821C6.44911 4.70659 6.32035 4.83562 6.16169 4.83562C6.00304 4.83562 5.87428 4.70656 5.87428 4.54821V1.38654C5.87425 1.22789 5.74576 1.09912 5.58681 1.09912C5.42787 1.09912 5.2994 1.22789 5.2994 1.38654V4.54821C5.2994 4.70659 5.17063 4.83562 5.01198 4.83562C4.85333 4.83562 4.72457 4.70656 4.72457 4.54821V1.38654C4.72454 1.22789 4.59607 1.09912 4.43713 1.09912C4.27818 1.09912 4.14971 1.22789 4.14971 1.38654V4.54821C4.14971 4.70659 4.02095 4.83562 3.8623 4.83562C3.70364 4.83562 3.57488 4.70656 3.57488 4.54821V1.38654C3.57486 1.22789 3.44636 1.09912 3.28742 1.09912C3.12847 1.09912 3 1.22789 3 1.38654V4.54821C3 5.30901 3.07358 5.71457 3.74386 6.14082C3.96288 6.28194 4.09194 6.54868 4.08072 6.83898L3.89705 12.8714C3.8867 13.1198 3.95426 13.3216 4.0974 13.4707C4.32993 13.713 4.69036 13.7458 5.01198 13.7458C5.33361 13.7458 5.69404 13.713 5.92657 13.471C6.06971 13.3216 6.13724 13.1201 6.12692 12.8715L5.87398 6.83671C5.86306 6.54986 5.99326 6.28312 6.21258 6.14171C6.90696 5.69992 7.02394 5.29322 7.02394 4.54821V1.38654C7.02394 1.22789 6.89547 1.09912 6.73653 1.09912ZM5.90241 5.65768C5.51209 5.90975 5.281 6.36992 5.29969 6.85968L5.55263 12.8956C5.55636 12.9813 5.54258 13.041 5.51153 13.0732C5.44916 13.1379 5.28129 13.1709 5.01198 13.1709C4.74267 13.1709 4.57481 13.1379 4.51244 13.0729C4.48139 13.041 4.46761 12.9812 4.47163 12.8921L4.65531 6.85852C4.67398 6.36846 4.44434 5.90829 4.05402 5.65652C3.91118 5.56599 3.81087 5.48809 3.74015 5.40186C3.99108 5.43693 4.2558 5.353 4.43715 5.19032C4.58978 5.32714 4.79126 5.41048 5.01201 5.41048C5.23276 5.41048 5.43424 5.32711 5.58686 5.19032C5.75443 5.34035 5.98753 5.42399 6.22522 5.40818C6.14616 5.49125 6.04123 5.56915 5.90241 5.65768Z" fill="#013125" fill-opacity="0.3"/>
<path d="M10.7614 1.09912C10.7582 1.09912 10.7553 1.09912 10.7525 1.09912C9.72691 1.09912 8.85891 1.99417 8.42949 3.49567C7.97221 5.09431 8.0863 7.10659 9.03537 7.85877V12.8835C9.03537 13.277 9.20983 13.7458 10.0414 13.7458C10.8729 13.7458 11.0473 13.277 11.0473 12.8835V1.38654C11.0474 1.22845 10.9198 1.09999 10.7614 1.09912ZM10.4725 12.8835C10.4725 13.0442 10.4725 13.1709 10.0414 13.1709C9.6102 13.1709 9.6102 13.0442 9.6102 12.8835V7.70988C9.6102 7.61013 9.55846 7.51758 9.47339 7.46499C8.75712 7.02379 8.52748 5.24291 8.98189 3.65345C9.29231 2.56957 9.83641 1.86797 10.4725 1.70873L10.4725 12.8835Z" fill="#013125" fill-opacity="0.3"/>
</svg>
