<svg width="24" height="18" viewBox="0 0 24 18" fill="none" xmlns="http://www.w3.org/2000/svg">
<path fill-rule="evenodd" clip-rule="evenodd" d="M19.1657 1.00404C19.5485 0.993424 19.9392 1.00369 20.3252 1.03502C20.4859 1.04834 20.6228 1.16688 20.6638 1.33272C20.8619 2.13699 20.9739 2.96858 20.9958 3.80316C21.1575 9.98208 16.4254 15.1407 10.4536 15.3081C10.1789 15.3157 9.90052 15.3127 9.62355 15.2987L9.48915 15.292L8.20976 16.8599C8.13392 16.9527 8.0265 17 7.91857 17C7.83285 16.9998 7.74632 16.9705 7.67481 16.9084C7.51314 16.7673 7.49172 16.5149 7.62869 16.3467L8.82244 14.8838L8.90677 14.7801L8.87778 14.6481C8.72716 13.9471 8.64222 13.2288 8.62349 12.509C8.61203 12.0734 8.62448 11.6406 8.66038 11.2132L8.67619 11.0152L8.49831 10.937C5.70926 9.70751 3.91929 6.8547 4.00264 3.67789C4.01739 3.10657 4.09353 2.53644 4.22926 1.98602C4.27032 1.82058 4.40876 1.70294 4.56921 1.68968C4.83382 1.6681 5.10118 1.661 5.36241 1.66813C7.61207 1.73127 9.67418 2.82656 11.0294 4.64236L11.2271 4.90638L11.4445 4.66122C11.4927 4.60671 11.5417 4.55181 11.5907 4.49823C13.5824 2.32531 16.2719 1.08521 19.1657 1.00404ZM19.1854 1.79744C16.4944 1.87303 13.9918 3.02768 12.1415 5.04647C12.0308 5.16723 11.9231 5.29043 11.8187 5.41556L11.5143 5.79811L11.5051 5.81158C11.5001 5.81903 11.4944 5.82537 11.4906 5.83044C10.4053 7.27676 9.70755 8.99797 9.47203 10.805C9.47123 10.8114 9.46859 10.8195 9.46675 10.8293L9.46544 10.8454C9.39783 11.3846 9.37061 11.9339 9.38506 12.4875C9.39291 12.7889 9.4128 13.0908 9.44567 13.39L9.51682 14.0311L14.7306 7.6395C14.8062 7.54724 14.9131 7.49971 15.0205 7.49941C15.1065 7.49941 15.1938 7.53001 15.2655 7.59235C15.4274 7.73351 15.4489 7.9858 15.3117 8.15406L10.1045 14.5376L10.7238 14.5026C16.1427 14.1904 20.3819 9.46021 20.2342 3.82472C20.2184 3.21777 20.1506 2.61235 20.034 2.0197L19.9918 1.80552L19.7784 1.79879L19.1854 1.79744ZM4.90124 2.46018L4.86303 2.68783C4.80638 3.02098 4.77303 3.35993 4.76421 3.69944C4.69298 6.41749 6.15463 8.8763 8.47064 10.052L8.78292 10.211L8.85407 9.86075C9.15925 8.37196 9.75688 6.96602 10.6183 5.71729L10.7264 5.55969L10.6197 5.40209C9.48774 3.72452 7.71034 2.65978 5.73792 2.48442L5.34132 2.46153C5.27069 2.45949 5.19865 2.45838 5.12655 2.45883L4.90124 2.46018Z" fill="#013125"/>
</svg>
