<svg width="16" height="16" viewBox="0 0 16 16" fill="none" xmlns="http://www.w3.org/2000/svg">
<path d="M12.1327 5.73908C12.0657 5.67619 11.974 5.63752 11.873 5.63752C11.8493 5.63752 11.826 5.63985 11.8032 5.64358L11.8056 5.64311C11.6852 5.66641 11.5877 5.7442 11.5411 5.84762L11.5401 5.84995C11.3149 6.34283 10.9728 6.75185 10.5462 7.05791L10.538 7.0635C10.5734 6.83524 10.5938 6.57203 10.5938 6.30463C10.5938 5.48938 10.405 4.71653 10.0672 4.0238L10.0818 4.05688C9.48968 2.87035 8.49771 1.9433 7.27667 1.42108L7.24076 1.40757C7.19805 1.3894 7.14855 1.37915 7.09662 1.37915C6.89522 1.37915 6.73215 1.53568 6.73215 1.72901C6.73215 1.74997 6.7341 1.77047 6.73798 1.7905L6.73749 1.78817C6.73895 1.82358 6.73992 1.8655 6.73992 1.90743C6.73992 2.90249 6.28033 3.7946 5.55382 4.39882L5.54945 4.40254C5.2937 4.65131 5.02047 4.88657 4.74821 5.12182C4.12798 5.6147 3.58832 6.16906 3.12921 6.78259L3.11077 6.80868C2.60314 7.60156 2.30225 8.56262 2.30225 9.5903C2.30225 10.099 2.37601 10.5914 2.51384 11.0582L2.50413 11.0205C2.86132 12.4232 3.75915 13.5827 4.96805 14.3085L4.99135 14.3215C5.87316 14.8619 6.94715 15.1857 8.09976 15.1913H8.10121C8.10315 15.1913 8.10607 15.1913 8.10849 15.1913C8.35357 15.1913 8.59526 15.1759 8.8316 15.1456L8.80394 15.1484C11.0024 14.84 12.7849 13.4024 13.5095 11.4779L13.5226 11.4388C13.7065 10.9161 13.8123 10.3142 13.8123 9.68859C13.8123 8.15034 13.1712 6.75557 12.1312 5.73768L12.1322 5.73861L12.1327 5.73908ZM12.833 11.2147C12.189 12.93 10.6316 14.1869 8.73891 14.4524L8.71125 14.4557C8.52877 14.478 8.31766 14.4906 8.10364 14.4906C7.09177 14.4906 6.1493 14.2064 5.35776 13.7168L5.37765 13.7285C4.30366 13.0851 3.52183 12.0747 3.21754 10.8844L3.21075 10.8528C3.09621 10.475 3.03021 10.0408 3.03021 9.59169C3.03021 8.70517 3.28742 7.87595 3.73391 7.16972L3.72178 7.19068C4.16389 6.60371 4.66231 6.09453 5.2209 5.65336L5.23546 5.64218C5.51888 5.39807 5.8023 5.15304 6.06874 4.89402C6.81903 4.23623 7.33297 3.34179 7.48293 2.33415L7.48584 2.31132C8.32834 2.79535 8.99321 3.4918 9.41009 4.32381L9.42271 4.35223C9.70274 4.92477 9.86628 5.5956 9.86628 6.30323C9.86628 6.78306 9.79106 7.24612 9.65129 7.68216L9.66051 7.64908C9.65032 7.67936 9.64498 7.7143 9.64498 7.75064C9.64498 7.9435 9.80805 8.10003 10.009 8.10003C10.058 8.10003 10.1051 8.09071 10.1473 8.07394L10.1449 8.07487C10.9092 7.77067 11.5309 7.25823 11.9487 6.61209L11.958 6.59625C12.6607 7.43432 13.0858 8.51184 13.0858 9.6844C13.0858 10.2318 12.9931 10.7582 12.8223 11.2506L12.833 11.2157V11.2147Z" fill="#013125" fill-opacity="0.3"/>
</svg>
