<svg width="24" height="18" viewBox="0 0 24 18" fill="none" xmlns="http://www.w3.org/2000/svg">
<path d="M15.3695 5.99152C15.3025 5.92863 15.2108 5.88997 15.1099 5.88997C15.0861 5.88997 15.0628 5.89229 15.04 5.89602L15.0424 5.89556C14.922 5.91885 14.8245 5.99665 14.7779 6.10007L14.7769 6.10239C14.5518 6.59527 14.2096 7.00429 13.783 7.31035L13.7748 7.31595C13.8102 7.08768 13.8306 6.82447 13.8306 6.55707C13.8306 5.74182 13.6418 4.96897 13.304 4.27625L13.3186 4.30932C12.7265 3.12279 11.7345 2.19574 10.5135 1.67352L10.4776 1.66001C10.4349 1.64184 10.3854 1.63159 10.3334 1.63159C10.132 1.63159 9.96897 1.78812 9.96897 1.98145C9.96897 2.00241 9.97091 2.02291 9.97479 2.04294L9.97431 2.04061C9.97577 2.07602 9.97674 2.11794 9.97674 2.15987C9.97674 3.15494 9.51715 4.04705 8.79064 4.65126L8.78627 4.65499C8.53051 4.90375 8.25728 5.13901 7.98502 5.37426C7.3648 5.86714 6.82513 6.4215 6.36603 7.03503L6.34759 7.06112C5.83995 7.85401 5.53906 8.81506 5.53906 9.84274C5.53906 10.3514 5.61283 10.8439 5.75066 11.3106L5.74095 11.2729C6.09814 12.6756 6.99596 13.8351 8.20487 14.5609L8.22816 14.574C9.10997 15.1143 10.184 15.4381 11.3366 15.4437H11.338C11.34 15.4437 11.3429 15.4437 11.3453 15.4437C11.5904 15.4437 11.8321 15.4283 12.0684 15.398L12.0408 15.4008C14.2392 15.0924 16.0218 13.6548 16.7463 11.7304L16.7594 11.6912C16.9434 11.1686 17.0492 10.5667 17.0492 9.94103C17.0492 8.40278 16.4081 7.00802 15.368 5.99012L15.369 5.99106L15.3695 5.99152ZM16.0698 11.4672C15.4258 13.1824 13.8684 14.4393 11.9757 14.7049L11.9481 14.7081C11.7656 14.7305 11.5545 14.7431 11.3405 14.7431C10.3286 14.7431 9.38611 14.4589 8.59457 13.9693L8.61447 13.9809C7.54048 13.3376 6.75865 12.3271 6.45436 11.1369L6.44756 11.1052C6.33303 10.7274 6.26703 10.2932 6.26703 9.84414C6.26703 8.95761 6.52424 8.12839 6.97073 7.42216L6.95859 7.44312C7.40071 6.85615 7.89912 6.34697 8.45772 5.9058L8.47228 5.89462C8.7557 5.65052 9.03912 5.40548 9.30555 5.14646C10.0558 4.48868 10.5698 3.59424 10.7197 2.58659L10.7227 2.56377C11.5652 3.04779 12.23 3.74424 12.6469 4.57626L12.6595 4.60467C12.9396 5.17721 13.1031 5.84804 13.1031 6.55567C13.1031 7.0355 13.0279 7.49856 12.8881 7.9346L12.8973 7.90152C12.8871 7.9318 12.8818 7.96674 12.8818 8.00308C12.8818 8.19594 13.0449 8.35247 13.2458 8.35247C13.2948 8.35247 13.3419 8.34315 13.3841 8.32638L13.3817 8.32731C14.146 8.02311 14.7677 7.51067 15.1856 6.86453L15.1948 6.84869C15.8975 7.68676 16.3226 8.76429 16.3226 9.93684C16.3226 10.4842 16.23 11.0106 16.0591 11.503L16.0698 11.4681V11.4672Z" fill="#013125"/>
</svg>
