<svg width="155" height="54" viewBox="0 0 155 54" fill="none" xmlns="http://www.w3.org/2000/svg">
<path fill-rule="evenodd" clip-rule="evenodd" d="M93.6624 37.7201C98.5574 38.0801 101.341 40.4315 101.341 44.1987C101.341 48.902 97.2614 51.9498 91.1423 52.0457L90.8304 53.8459H86.2472L86.583 51.9497C81.6878 51.5657 78.9042 49.2619 78.9042 45.4465C78.9044 40.7434 82.9841 37.6962 89.1031 37.6002L89.3667 36.0881H93.9498L93.6624 37.7201ZM88.4547 41.2952C85.2634 41.3912 83.32 42.9751 83.3198 45.4465C83.3198 47.2462 84.6154 48.2304 87.2069 48.3984L88.4547 41.2952ZM91.7908 48.3508C94.9821 48.2547 96.9256 46.6703 96.9256 44.1987C96.9254 42.3992 95.6298 41.4155 93.0385 41.2475L91.7908 48.3508Z" fill="#F8FFEE"/>
<path d="M43.0915 49.0462H47.6747L49.8829 36.5683H54.4176L52.2102 49.0462H56.7933L58.4573 39.6431H63.1357L60.7049 53.3657H37.644L40.6198 36.5683H45.299L43.0915 49.0462Z" fill="#F8FFEE"/>
<path d="M78.6302 40.6236H70.1355L69.7037 43.0231H77.4309L76.7586 46.7427H69.056L68.5996 49.3104H77.1427L76.399 53.3657H63.2243L66.1763 36.5683H79.3747L78.6302 40.6236Z" fill="#F8FFEE"/>
<path d="M4.86282 36.8431C5.54248 42.959 9.82864 46.8293 15.1295 47.9867C20.4755 49.1538 26.6839 47.4958 30.8124 42.5117L34.5602 45.6162C29.1876 52.1024 21.0852 54.2678 14.0916 52.7411C7.05324 51.2044 0.96921 45.8632 0.0265531 37.3806L4.86282 36.8431Z" fill="#A6ED49"/>
<path fill-rule="evenodd" clip-rule="evenodd" d="M39.7717 0.001489C39.7718 0.00217533 39.7721 0.00352054 39.7724 0.004467C39.7731 0.00663124 39.7743 0.00989335 39.7754 0.013401C39.7778 0.0211846 39.7807 0.0329683 39.7851 0.0469035C39.7939 0.0752861 39.8068 0.116871 39.823 0.169746C39.8557 0.276071 39.903 0.431374 39.9623 0.629847C40.081 1.02753 40.2492 1.60236 40.4492 2.31763C40.6225 2.93771 40.8184 3.66598 41.0291 4.47742C45.6281 1.83902 51.2943 1.45033 57.0798 4.34713C60.1059 5.86242 62.2269 7.95364 63.5763 10.5548C64.9013 13.1092 65.4009 15.9974 65.4778 19.0034C65.6185 24.5117 64.3119 31.2467 63.3195 38.1184H58.405C59.4692 30.543 60.7449 24.3113 60.6125 19.1277C60.5464 16.5435 60.1214 14.4629 59.2567 12.7957C58.4162 11.1755 57.0804 9.79026 54.9006 8.69873C50.0908 6.29055 45.6657 6.94476 42.2203 9.50205C43.0992 13.6306 43.8906 18.562 43.8054 22.7497C43.758 25.0761 43.4391 27.4276 42.5278 29.3244C41.5563 31.3462 39.8376 32.9476 37.2344 33.2136C34.2263 33.5208 31.6684 32.65 30.213 30.3361C28.9261 28.2895 28.8917 25.6713 29.2526 23.3475C29.9901 18.6001 32.7113 12.9913 35.5236 9.34868C35.9411 8.80788 36.3824 8.29099 36.845 7.80087C36.4504 6.15625 36.0674 4.71799 35.7625 3.6272C35.571 2.94185 35.4109 2.39458 35.2995 2.02132C35.2438 1.83501 35.1999 1.69138 35.1707 1.59621C35.1562 1.54922 35.1451 1.51351 35.1379 1.49049C35.1345 1.47938 35.1321 1.47041 35.1305 1.46518C35.1298 1.46303 35.1287 1.46099 35.1282 1.45996L39.7709 0L39.7717 0.001489ZM38.1457 14.0777C36.2163 17.0914 34.548 20.9618 34.0614 24.0942C33.7598 26.0358 33.9901 27.1997 34.3331 27.7453C34.5082 28.0235 34.9481 28.5559 36.7401 28.3729C37.3045 28.3151 37.7345 28.063 38.1412 27.2167C38.6081 26.2448 38.8981 24.7112 38.9401 22.6507C38.9927 20.0624 38.6513 17.0402 38.1457 14.0777Z" fill="#A6ED49"/>
<path fill-rule="evenodd" clip-rule="evenodd" d="M10.6744 0.007445C10.6748 0.00870891 10.676 0.0106852 10.6766 0.0126565C10.678 0.0170265 10.6795 0.0236918 10.6818 0.031269C10.6867 0.047093 10.6945 0.0705836 10.7034 0.099763C10.7214 0.15854 10.747 0.244382 10.7801 0.354382C10.8466 0.57532 10.9422 0.896864 11.0593 1.30362C11.2862 2.0919 11.5954 3.2052 11.9385 4.5407C13.1541 3.86929 14.4532 3.35439 15.8248 3.01448C19.5667 2.08743 23.6644 2.50391 27.8455 4.2846C30.6162 5.46469 32.6362 7.22643 34.0963 9.28317C32.9495 10.5959 31.9364 12.3212 31.1519 13.873C30.0849 11.6307 28.4216 9.81978 25.9381 8.76202C22.5709 7.32802 19.5567 7.10372 16.9952 7.73833C15.6151 8.08037 14.3117 8.6864 13.1111 9.5497C13.4751 11.2806 13.8196 13.1333 14.0909 15.0002C14.6364 18.7543 14.9232 22.7858 14.3686 26.0419C14.0907 27.6731 13.5701 29.3101 12.5945 30.6317C11.5612 32.0311 10.073 32.9907 8.16766 33.2106C5.17327 33.5561 2.61308 32.7026 1.1567 30.383C-0.123277 28.344 -0.16213 25.7249 0.191088 23.3989C0.913538 18.6421 3.60562 13.0013 6.42553 9.34868C6.84104 8.81052 7.27857 8.29917 7.73585 7.81725C7.57311 7.13237 7.4128 6.48127 7.25788 5.87559C6.9154 4.53668 6.60609 3.42435 6.38309 2.64967C6.27175 2.26289 6.18159 1.96011 6.12028 1.75627C6.08974 1.65473 6.06588 1.57704 6.0503 1.52622C6.04259 1.50108 6.03688 1.48162 6.03318 1.46964C6.03146 1.46409 6.03024 1.45955 6.02945 1.45699C6.02922 1.45625 6.02887 1.45522 6.02871 1.45475C6.0335 1.45341 6.13669 1.42058 8.3508 0.72961C10.5079 0.0564229 10.6632 0.00884171 10.6744 0.005956V0.007445ZM9.02532 14.1187C7.11733 17.1271 5.47802 20.9957 5.00204 24.1292C4.70542 26.0827 4.93715 27.2535 5.27751 27.7959C5.44181 28.0575 5.85422 28.5782 7.60928 28.3759C8.07892 28.3217 8.38815 28.1354 8.67913 27.7415C9.02772 27.2693 9.36011 26.4626 9.57104 25.2244C9.99398 22.7409 9.80209 19.3244 9.27547 15.7C9.19872 15.1718 9.11349 14.6437 9.02532 14.1187Z" fill="#A6ED49"/>
<path d="M74.6468 16.1202L73.8305 20.7224H73.1098L73.8132 16.7541H70.965L70.2617 20.7224H69.5323L70.3485 16.1202H74.6468ZM75.0799 18.6645C75.0538 17.1622 76.3129 15.9639 77.7543 15.99C79.1958 15.99 80.1249 16.8931 80.1249 18.1782C80.1509 19.6804 78.8918 20.8787 77.4504 20.8527C76.0177 20.8527 75.0799 19.9496 75.0799 18.6645ZM79.4042 18.1782C79.4042 17.2664 78.7703 16.6239 77.7543 16.6239C76.7123 16.6239 75.8006 17.5269 75.8006 18.6645C75.8006 19.5762 76.4345 20.2188 77.4504 20.2188C78.4924 20.2188 79.4042 19.3157 79.4042 18.1782ZM81.6163 16.1202H85.1331L84.3255 20.7224H83.6048L84.2995 16.7628H82.1807L81.8942 18.1261C81.7553 18.7947 81.6163 19.2983 81.4687 19.637C81.3298 19.9756 81.1561 20.2361 80.939 20.4011C80.7306 20.5661 80.4441 20.6964 80.0707 20.7745L79.9144 20.1406C80.4788 20.0364 80.7219 19.802 80.8956 19.307C80.9824 19.0552 81.0866 18.6471 81.1995 18.0914L81.6163 16.1202ZM86.2998 18.6818C86.2998 19.663 86.8729 20.2361 87.9149 20.2361C88.5401 20.2361 89.1567 19.8628 89.6082 19.2636L90.1466 19.6891C89.6516 20.3924 88.7833 20.8527 87.9149 20.8527C86.4301 20.8527 85.5704 20.0104 85.5704 18.6818C85.5531 17.197 86.7514 15.9639 88.2449 15.99C89.6082 15.99 90.5199 16.9104 90.5199 18.1956C90.5199 18.3953 90.5113 18.5516 90.5026 18.6818H86.2998ZM86.3693 18.0914H89.7819C89.8166 17.2317 89.1914 16.6065 88.2449 16.6065C87.7934 16.6065 87.3939 16.7454 87.0466 17.032C86.6993 17.3099 86.4735 17.6659 86.3693 18.0914ZM90.7236 19.1855L91.4617 19.0899C91.5572 19.8628 92.0087 20.2448 92.9205 20.2448C93.6933 20.2448 94.1883 19.9062 94.1883 19.3244C94.1883 18.8381 93.7628 18.6297 92.8684 18.6297H92.2432L92.3387 18.074H93.2765C94.0146 18.074 94.3967 17.7961 94.3967 17.3185C94.3967 16.9017 93.9625 16.6065 93.2939 16.6065C92.5297 16.6065 92.0608 16.9278 91.783 17.6138L91.1144 17.3793C91.4356 16.5197 92.2258 15.99 93.346 15.99C94.4574 15.99 95.1261 16.537 95.1261 17.223C95.1261 17.8048 94.8308 18.1435 94.2664 18.3519V18.3605C94.6832 18.5342 94.935 18.9076 94.935 19.2897C94.935 20.2361 94.0754 20.8527 92.8337 20.8527C91.5919 20.8527 90.7844 20.2361 90.7236 19.1855ZM96.2168 20.7224H95.4874L96.3036 16.1202H97.033L96.6944 18.0479H99.5425L99.8811 16.1202H100.602L99.7856 20.7224H99.0649L99.4296 18.6905H96.5815L96.2168 20.7224ZM103.466 17.7267C104.578 17.7267 105.212 18.1956 105.212 19.0378C105.212 20.1233 104.404 20.7224 102.954 20.7224H100.801L101.617 16.1202H102.346L102.06 17.7267H103.466ZM103.084 20.0798C104.013 20.0798 104.482 19.7065 104.482 19.0378C104.482 18.5776 104.144 18.3519 103.406 18.3519H101.947L101.643 20.0798H103.084ZM106.358 20.7224H105.637L106.445 16.1202H107.165L106.358 20.7224ZM108.341 18.6818C108.341 19.663 108.914 20.2361 109.956 20.2361C110.581 20.2361 111.198 19.8628 111.649 19.2636L112.188 19.6891C111.693 20.3924 110.824 20.8527 109.956 20.8527C108.471 20.8527 107.612 20.0104 107.612 18.6818C107.594 17.197 108.793 15.9639 110.286 15.99C111.649 15.99 112.561 16.9104 112.561 18.1956C112.561 18.3953 112.552 18.5516 112.544 18.6818H108.341ZM108.41 18.0914H111.823C111.858 17.2317 111.233 16.6065 110.286 16.6065C109.835 16.6065 109.435 16.7454 109.088 17.032C108.74 17.3099 108.515 17.6659 108.41 18.0914ZM114.892 22.6762L116.047 16.1202H116.75L116.663 16.6239H116.681C117.106 16.2158 117.688 15.99 118.278 15.99C119.563 15.99 120.467 16.8583 120.467 18.1521C120.501 19.6283 119.251 20.8787 117.731 20.8527C117.071 20.8527 116.464 20.6008 116.081 20.1754H116.064L115.613 22.6762H114.892ZM119.746 18.1521C119.746 17.223 119.129 16.6239 118.165 16.6239C117.358 16.6239 116.585 17.197 116.464 17.883L116.194 19.3852C116.464 19.8801 117.054 20.2188 117.705 20.2188C118.877 20.2188 119.746 19.2897 119.746 18.1521ZM121.694 18.6818C121.694 19.663 122.267 20.2361 123.309 20.2361C123.934 20.2361 124.551 19.8628 125.002 19.2636L125.541 19.6891C125.046 20.3924 124.177 20.8527 123.309 20.8527C121.824 20.8527 120.965 20.0104 120.965 18.6818C120.947 17.197 122.146 15.9639 123.639 15.99C125.002 15.99 125.914 16.9104 125.914 18.1956C125.914 18.3953 125.905 18.5516 125.897 18.6818H121.694ZM121.763 18.0914H125.176C125.211 17.2317 124.586 16.6065 123.639 16.6065C123.188 16.6065 122.788 16.7454 122.441 17.032C122.093 17.3099 121.868 17.6659 121.763 18.0914ZM130.013 20.0885L130.707 16.1202H131.428L130.62 20.7224H126.374L127.182 16.1202H127.902L127.208 20.0885H130.013ZM130.733 20.0885H131.471L131.367 20.7224H131.35L131.185 21.7297H130.464L130.638 20.7224H130.62L130.733 20.0885ZM132.558 18.6818C132.558 19.663 133.131 20.2361 134.173 20.2361C134.798 20.2361 135.415 19.8628 135.866 19.2636L136.404 19.6891C135.909 20.3924 135.041 20.8527 134.173 20.8527C132.688 20.8527 131.828 20.0104 131.828 18.6818C131.811 17.197 133.009 15.9639 134.503 15.99C135.866 15.99 136.778 16.9104 136.778 18.1956C136.778 18.3953 136.769 18.5516 136.76 18.6818H132.558ZM132.627 18.0914H136.04C136.074 17.2317 135.449 16.6065 134.503 16.6065C134.051 16.6065 133.652 16.7454 133.304 17.032C132.957 17.3099 132.731 17.6659 132.627 18.0914ZM142.344 16.1202L141.527 20.7224H140.807L141.51 16.7541H138.662L137.959 20.7224H137.229L138.045 16.1202H142.344ZM144.713 20.7224H143.992L144.705 16.7541H142.898L143.011 16.1202H147.336L147.223 16.7541H145.425L144.713 20.7224ZM149.843 17.7267C150.954 17.7267 151.588 18.1956 151.588 19.0378C151.588 20.1233 150.781 20.7224 149.331 20.7224H147.177L147.993 16.1202H148.723L148.436 17.7267H149.843ZM149.461 20.0798C150.39 20.0798 150.859 19.7065 150.859 19.0378C150.859 18.5776 150.52 18.3519 149.782 18.3519H148.323L148.019 20.0798H149.461ZM152.734 20.7224H152.014L152.821 16.1202H153.542L152.734 20.7224ZM70.2617 30.7224H69.5323L70.3485 26.1202H71.0779L70.7393 28.0479H73.5874L73.926 26.1202H74.6468L73.8305 30.7224H73.1098L73.4745 28.6905H70.6264L70.2617 30.7224ZM74.967 29.6283C74.967 28.7166 75.5574 28.2737 77.1725 27.9958C78.2493 27.8135 78.5966 27.6225 78.5966 27.2143C78.5966 26.8323 78.2059 26.6065 77.5459 26.6065C76.7123 26.6065 76.1392 27.0146 75.9395 27.744L75.2362 27.5877C75.488 26.6152 76.3997 25.99 77.5546 25.99C78.6748 25.99 79.3434 26.4763 79.3434 27.2491C79.3434 27.3272 79.3347 27.4227 79.3173 27.5183L78.7529 30.7224H78.0669L78.1624 30.1406H78.1538C77.8064 30.5922 77.1639 30.8527 76.4258 30.8527C75.5661 30.8527 74.967 30.349 74.967 29.6283ZM78.3274 29.0813L78.4924 28.1261H78.475C78.3101 28.2998 78.0148 28.4126 77.3115 28.5516C76.1219 28.7687 75.6877 29.0552 75.6877 29.5762C75.6877 29.993 76.009 30.2188 76.5994 30.2188C77.3983 30.2188 78.2232 29.6717 78.3274 29.0813ZM85.8679 26.1202H86.8318L84.331 28.3171L86.0155 30.7224H85.1646L83.7492 28.6731H83.0719L82.7072 30.7224H81.9865L82.8027 26.1202H83.5234L83.1934 27.9698H83.8013L85.8679 26.1202ZM86.3273 29.6283C86.3273 28.7166 86.9177 28.2737 88.5328 27.9958C89.6096 27.8135 89.9569 27.6225 89.9569 27.2143C89.9569 26.8323 89.5661 26.6065 88.9062 26.6065C88.0726 26.6065 87.4995 27.0146 87.2998 27.744L86.5964 27.5877C86.8483 26.6152 87.76 25.99 88.9149 25.99C90.035 25.99 90.7037 26.4763 90.7037 27.2491C90.7037 27.3272 90.695 27.4227 90.6776 27.5183L90.1132 30.7224H89.4272L89.5227 30.1406H89.514C89.1667 30.5922 88.5241 30.8527 87.7861 30.8527C86.9264 30.8527 86.3273 30.349 86.3273 29.6283ZM89.6877 29.0813L89.8527 28.1261H89.8353C89.6703 28.2998 89.3751 28.4126 88.6718 28.5516C87.4821 28.7687 87.048 29.0552 87.048 29.5762C87.048 29.993 87.3693 30.2188 87.9597 30.2188C88.7586 30.2188 89.5835 29.6717 89.6877 29.0813ZM97.155 26.1202H98.0494L95.8699 28.3258L97.2331 30.7224H96.3909L95.2881 28.6818H94.715L94.3503 30.7224H93.6209L93.9856 28.6818H93.5427L91.7192 30.7224H90.738L93.013 28.2737L91.5542 26.1202H92.3705L93.5861 27.9698H94.1071L94.4371 26.1202H95.1665L94.8365 27.9698H95.3402L97.155 26.1202ZM102.12 30.0798H102.858L102.563 31.7384H101.885L102.068 30.7224H98.0993L97.917 31.7384H97.2397L97.5349 30.0798H97.8041C98.3338 29.9062 98.4901 29.6283 98.82 28.0914L99.2368 26.1202H102.814L102.12 30.0798ZM99.506 28.1261C99.3931 28.6905 99.2716 29.1247 99.1587 29.4199C99.0458 29.7151 98.9069 29.9322 98.7332 30.0798H101.399L101.981 26.7628H99.7926L99.506 28.1261ZM105.888 27.7267C106.999 27.7267 107.633 28.1956 107.633 29.0378C107.633 30.1233 106.826 30.7224 105.375 30.7224H103.222L104.038 26.1202H104.768L104.481 27.7267H105.888ZM105.506 30.0798C106.435 30.0798 106.904 29.7065 106.904 29.0378C106.904 28.5776 106.565 28.3519 105.827 28.3519H104.368L104.064 30.0798H105.506ZM108.779 30.7224H108.059L108.866 26.1202H109.587L108.779 30.7224ZM114.887 26.1202L114.071 30.7224H113.35L113.975 27.1536H113.967L110.589 30.7224H109.807L110.624 26.1202H111.344L110.719 29.6891H110.728L114.097 26.1202H114.887ZM111.718 24.592H112.247C112.204 25.0348 112.43 25.2693 112.881 25.2693C113.341 25.2693 113.637 25.0348 113.732 24.592H114.262C114.149 25.2953 113.637 25.6861 112.873 25.6861C112.1 25.6861 111.648 25.2606 111.718 24.592ZM121.481 30.0798H122.219L121.924 31.7384H121.247L121.429 30.7224H117.461L117.278 31.7384H116.601L116.896 30.0798H117.166C117.695 29.9062 117.852 29.6283 118.182 28.0914L118.598 26.1202H122.176L121.481 30.0798ZM118.868 28.1261C118.755 28.6905 118.633 29.1247 118.52 29.4199C118.407 29.7151 118.268 29.9322 118.095 30.0798H120.761L121.342 26.7628H119.154L118.868 28.1261ZM123.285 28.6818C123.285 29.663 123.858 30.2361 124.9 30.2361C125.525 30.2361 126.141 29.8628 126.593 29.2636L127.131 29.6891C126.636 30.3924 125.768 30.8527 124.9 30.8527C123.415 30.8527 122.555 30.0104 122.555 28.6818C122.538 27.197 123.736 25.9639 125.23 25.99C126.593 25.99 127.505 26.9104 127.505 28.1956C127.505 28.3953 127.496 28.5516 127.487 28.6818H123.285ZM123.354 28.0914H126.767C126.801 27.2317 126.176 26.6065 125.23 26.6065C124.778 26.6065 124.379 26.7454 124.031 27.032C123.684 27.3099 123.458 27.6659 123.354 28.0914ZM128.685 30.7224H127.956L128.772 26.1202H129.502L129.163 28.0479H132.011L132.35 26.1202H133.071L132.254 30.7224H131.534L131.898 28.6905H129.05L128.685 30.7224ZM135.935 27.7267C137.046 27.7267 137.68 28.1956 137.68 29.0378C137.68 30.1233 136.873 30.7224 135.423 30.7224H133.269L134.085 26.1202H134.815L134.528 27.7267H135.935ZM135.553 30.0798C136.482 30.0798 136.951 29.7065 136.951 29.0378C136.951 28.5776 136.612 28.3519 135.874 28.3519H134.415L134.111 30.0798H135.553Z" fill="#A6ED49"/>
</svg>
