<svg width="202" height="71" viewBox="0 0 202 71" fill="none" xmlns="http://www.w3.org/2000/svg">
<path fill-rule="evenodd" clip-rule="evenodd" d="M122.857 49.4775C129.278 49.9498 132.929 53.0341 132.93 57.9756C132.93 64.145 127.578 68.1426 119.552 68.2686L119.143 70.6299H113.131L113.571 68.1426C107.15 67.6389 103.499 64.617 103.499 59.6123C103.499 53.4432 108.851 49.4462 116.877 49.3203L117.223 47.3369H123.234L122.857 49.4775ZM116.026 54.167C111.84 54.293 109.291 56.3706 109.291 59.6123C109.291 61.973 110.99 63.264 114.39 63.4844L116.026 54.167ZM120.402 63.4219C124.588 63.2958 127.138 61.2175 127.138 57.9756C127.137 55.6152 125.438 54.3249 122.039 54.1045L120.402 63.4219Z" fill="#E1FAC0"/>
<path d="M56.5234 64.334H62.5352L65.4316 47.9668H71.3799L68.4844 64.334H74.4961L76.6787 52H82.8154L79.627 70H49.3779L53.2812 47.9668H59.4189L56.5234 64.334Z" fill="#E1FAC0"/>
<path d="M103.14 53.2861H91.9971L91.4307 56.4336H101.566L100.685 61.3125H90.5811L89.9824 64.6807H101.188L100.213 70H82.9316L86.8037 47.9668H104.116L103.14 53.2861Z" fill="#E1FAC0"/>
<path d="M6.37858 48.3271C7.27009 56.3494 12.8923 61.4262 19.8454 62.9443C26.8578 64.4752 35.0013 62.3004 40.4167 55.7627L45.3327 59.835C38.2854 68.3429 27.6575 71.1833 18.484 69.1807C9.25176 67.165 1.27132 60.1589 0.0348298 49.0322L6.37858 48.3271Z" fill="#A6ED49"/>
<path fill-rule="evenodd" clip-rule="evenodd" d="M52.1686 0.00195312C52.1688 0.00285338 52.1692 0.0046179 52.1696 0.00585938C52.1705 0.00869822 52.1721 0.0129771 52.1735 0.0175781C52.1767 0.0277879 52.1805 0.0432446 52.1862 0.0615234C52.1978 0.098753 52.2147 0.1533 52.236 0.222656C52.2788 0.362123 52.3409 0.565834 52.4186 0.826172C52.5743 1.34782 52.7951 2.10182 53.0573 3.04004C53.2846 3.8534 53.5417 4.80868 53.818 5.87305C59.8505 2.41225 67.2828 1.90241 74.8717 5.70215C78.841 7.68975 81.6232 10.4328 83.3932 13.8447C85.1312 17.1954 85.7865 20.9838 85.8874 24.9268C86.072 32.152 84.3581 40.9864 83.0563 50H76.61C78.0059 40.0634 79.6793 31.8892 79.5055 25.0898C79.4188 21.7002 78.8615 18.9711 77.7272 16.7842C76.6247 14.6589 74.8725 12.8419 72.0133 11.4102C65.7042 8.25133 59.8998 9.10946 55.3805 12.4639C56.5333 17.8793 57.5714 24.3478 57.4596 29.8408C57.3975 32.8924 56.9793 35.9768 55.7839 38.4648C54.5095 41.1169 52.2551 43.2174 48.8405 43.5664C44.8947 43.9694 41.5395 42.8271 39.6305 39.792C37.9424 37.1074 37.8973 33.6731 38.3708 30.625C39.3382 24.3978 42.9075 17.0407 46.5964 12.2627C47.1441 11.5533 47.7229 10.8753 48.3298 10.2324C47.8121 8.07518 47.3097 6.1886 46.9098 4.75781C46.6586 3.85883 46.4485 3.14098 46.3024 2.65137C46.2295 2.40698 46.1718 2.21859 46.1335 2.09375C46.1146 2.03211 46.0999 1.98528 46.0905 1.95508C46.086 1.94051 46.0828 1.92874 46.0807 1.92188C46.0798 1.91906 46.0784 1.91639 46.0778 1.91504L52.1676 0L52.1686 0.00195312ZM50.0358 18.4658C47.505 22.4189 45.3167 27.4957 44.6784 31.6045C44.2828 34.1512 44.5849 35.6779 45.0348 36.3936C45.2645 36.7585 45.8415 37.4568 48.1921 37.2168C48.9324 37.141 49.4964 36.8104 50.0299 35.7002C50.6424 34.4254 51.0227 32.4137 51.0778 29.7109C51.1469 26.3158 50.699 22.3517 50.0358 18.4658Z" fill="#A6ED49"/>
<path fill-rule="evenodd" clip-rule="evenodd" d="M14.0016 0.00976562C14.0022 0.0114235 14.0037 0.0140158 14.0046 0.0166016C14.0063 0.0223337 14.0083 0.0310766 14.0114 0.0410156C14.0178 0.061772 14.028 0.0925847 14.0397 0.130859C14.0633 0.207957 14.0969 0.320557 14.1403 0.464844C14.2275 0.754649 14.3529 1.17642 14.5065 1.70996C14.8042 2.74395 15.2097 4.20427 15.6598 5.95605C17.2543 5.07536 18.9583 4.39996 20.7575 3.9541C25.6657 2.73808 31.0407 3.28439 36.5251 5.62012C40.1593 7.16805 42.8091 9.47893 44.7243 12.1768C43.2199 13.8987 41.891 16.1617 40.862 18.1973C39.4624 15.256 37.2807 12.8806 34.0231 11.4932C29.6064 9.61219 25.6525 9.31797 22.2926 10.1504C20.4824 10.599 18.7727 11.394 17.1979 12.5264C17.6753 14.7968 18.1273 17.227 18.4831 19.6758C19.1986 24.6001 19.5747 29.8882 18.8473 34.1592C18.4828 36.2988 17.7999 38.4461 16.5202 40.1797C15.1648 42.0152 13.2128 43.274 10.7135 43.5625C6.78579 44.0156 3.42758 42.8961 1.51725 39.8535C-0.161702 37.1789 -0.212666 33.7435 0.25065 30.6924C1.19829 24.4529 4.7295 17.0538 8.42838 12.2627C8.97341 11.5568 9.54732 10.886 10.1471 10.2539C9.93367 9.35555 9.72339 8.5015 9.52018 7.70703C9.07095 5.95077 8.66522 4.49173 8.37272 3.47559C8.22667 2.96824 8.10841 2.57109 8.02799 2.30371C7.98794 2.17052 7.95663 2.06861 7.9362 2.00195C7.92608 1.96897 7.91859 1.94345 7.91374 1.92773C7.91149 1.92045 7.90988 1.91449 7.90885 1.91113C7.90855 1.91017 7.90808 1.90882 7.90788 1.9082C7.91416 1.90644 8.04952 1.86337 10.9538 0.957031C13.7833 0.0740101 13.9869 0.0115977 14.0016 0.0078125V0.00976562ZM11.8385 18.5195C9.33583 22.4657 7.18554 27.5402 6.5612 31.6504C6.17212 34.2127 6.47607 35.7484 6.92252 36.46C7.13804 36.8032 7.679 37.4861 9.98112 37.2207C10.5971 37.1496 11.0028 36.9053 11.3844 36.3887C11.8417 35.7693 12.2777 34.711 12.5544 33.0869C13.1091 29.8293 12.8574 25.3479 12.1667 20.5938C12.066 19.9009 11.9542 19.2082 11.8385 18.5195Z" fill="#A6ED49"/>
<path d="M97.9147 21.9633L96.844 28H95.8987L96.8212 22.7948H93.0853L92.1628 28H91.206L92.2767 21.9633H97.9147ZM98.4828 25.3006C98.4486 23.3301 100.1 21.7583 101.991 21.7925C103.882 21.7925 105.1 22.977 105.1 24.6627C105.135 26.6332 103.483 28.205 101.592 28.1708C99.7129 28.1708 98.4828 26.9863 98.4828 25.3006ZM104.155 24.6627C104.155 23.4668 103.324 22.6239 101.991 22.6239C100.624 22.6239 99.4281 23.8085 99.4281 25.3006C99.4281 26.4965 100.26 27.3394 101.592 27.3394C102.959 27.3394 104.155 26.1548 104.155 24.6627ZM107.057 21.9633H111.67L110.61 28H109.665L110.576 22.8062H107.797L107.421 24.5944C107.239 25.4714 107.057 26.132 106.863 26.5763C106.681 27.0205 106.453 27.3622 106.168 27.5786C105.895 27.795 105.519 27.9658 105.029 28.0683L104.824 27.2369C105.565 27.1002 105.884 26.7927 106.111 26.1434C106.225 25.8131 106.362 25.2778 106.51 24.5488L107.057 21.9633ZM113.2 25.3234C113.2 26.6104 113.952 27.3622 115.319 27.3622C116.139 27.3622 116.947 26.8724 117.54 26.0865L118.246 26.6446C117.597 27.5672 116.458 28.1708 115.319 28.1708C113.371 28.1708 112.243 27.066 112.243 25.3234C112.221 23.3757 113.792 21.7583 115.751 21.7925C117.54 21.7925 118.736 22.9998 118.736 24.6855C118.736 24.9475 118.724 25.1525 118.713 25.3234H113.2ZM113.291 24.5488H117.767C117.813 23.4212 116.993 22.6012 115.751 22.6012C115.159 22.6012 114.635 22.7834 114.18 23.1593C113.724 23.5237 113.428 23.9907 113.291 24.5488ZM119.003 25.984L119.971 25.8587C120.096 26.8724 120.688 27.3736 121.884 27.3736C122.898 27.3736 123.547 26.9293 123.547 26.1662C123.547 25.5284 122.989 25.255 121.816 25.255H120.996L121.121 24.5261H122.351C123.32 24.5261 123.821 24.1616 123.821 23.5351C123.821 22.9884 123.251 22.6012 122.374 22.6012C121.372 22.6012 120.757 23.0226 120.392 23.9224L119.515 23.6149C119.937 22.4873 120.973 21.7925 122.442 21.7925C123.9 21.7925 124.777 22.51 124.777 23.4098C124.777 24.173 124.39 24.6172 123.65 24.8905V24.9019C124.197 25.1297 124.527 25.6195 124.527 26.1207C124.527 27.3622 123.399 28.1708 121.77 28.1708C120.142 28.1708 119.082 27.3622 119.003 25.984ZM126.208 28H125.251L126.322 21.9633H127.279L126.835 24.4919H130.57L131.015 21.9633H131.96L130.889 28H129.944L130.422 25.3347H126.687L126.208 28ZM135.717 24.0705C137.175 24.0705 138.007 24.6855 138.007 25.7903C138.007 27.2141 136.947 28 135.045 28H132.221L133.291 21.9633H134.248L133.872 24.0705H135.717ZM135.216 27.1571C136.435 27.1571 137.05 26.6674 137.05 25.7903C137.05 25.1867 136.606 24.8905 135.638 24.8905H133.724L133.325 27.1571H135.216ZM139.51 28H138.565L139.624 21.9633H140.569L139.51 28ZM142.111 25.3234C142.111 26.6104 142.863 27.3622 144.23 27.3622C145.05 27.3622 145.859 26.8724 146.451 26.0865L147.157 26.6446C146.508 27.5672 145.369 28.1708 144.23 28.1708C142.282 28.1708 141.155 27.066 141.155 25.3234C141.132 23.3757 142.704 21.7583 144.663 21.7925C146.451 21.7925 147.647 22.9998 147.647 24.6855C147.647 24.9475 147.636 25.1525 147.624 25.3234H142.111ZM142.203 24.5488H146.679C146.724 23.4212 145.904 22.6012 144.663 22.6012C144.071 22.6012 143.547 22.7834 143.091 23.1593C142.635 23.5237 142.339 23.9907 142.203 24.5488ZM150.704 30.5627L152.219 21.9633H153.142L153.028 22.6239H153.051C153.609 22.0886 154.372 21.7925 155.146 21.7925C156.832 21.7925 158.017 22.9315 158.017 24.6286C158.062 26.5649 156.422 28.205 154.429 28.1708C153.563 28.1708 152.766 27.8405 152.265 27.2824H152.242L151.65 30.5627H150.704ZM157.071 24.6286C157.071 23.4098 156.263 22.6239 154.998 22.6239C153.939 22.6239 152.925 23.3757 152.766 24.2755L152.413 26.2459C152.766 26.8952 153.54 27.3394 154.395 27.3394C155.932 27.3394 157.071 26.1207 157.071 24.6286ZM159.627 25.3234C159.627 26.6104 160.378 27.3622 161.745 27.3622C162.565 27.3622 163.374 26.8724 163.966 26.0865L164.672 26.6446C164.023 27.5672 162.884 28.1708 161.745 28.1708C159.798 28.1708 158.67 27.066 158.67 25.3234C158.647 23.3757 160.219 21.7583 162.178 21.7925C163.966 21.7925 165.162 22.9998 165.162 24.6855C165.162 24.9475 165.151 25.1525 165.139 25.3234H159.627ZM159.718 24.5488H164.194C164.24 23.4212 163.42 22.6012 162.178 22.6012C161.586 22.6012 161.062 22.7834 160.606 23.1593C160.151 23.5237 159.855 23.9907 159.718 24.5488ZM170.538 27.1685L171.449 21.9633H172.395L171.335 28H165.766L166.825 21.9633H167.77L166.859 27.1685H170.538ZM171.483 27.1685H172.452L172.315 28H172.292L172.076 29.3212H171.13L171.358 28H171.335L171.483 27.1685ZM173.877 25.3234C173.877 26.6104 174.628 27.3622 175.995 27.3622C176.815 27.3622 177.624 26.8724 178.216 26.0865L178.922 26.6446C178.273 27.5672 177.134 28.1708 175.995 28.1708C174.048 28.1708 172.92 27.066 172.92 25.3234C172.897 23.3757 174.469 21.7583 176.428 21.7925C178.216 21.7925 179.412 22.9998 179.412 24.6855C179.412 24.9475 179.401 25.1525 179.389 25.3234H173.877ZM173.968 24.5488H178.444C178.49 23.4212 177.67 22.6012 176.428 22.6012C175.836 22.6012 175.312 22.7834 174.856 23.1593C174.401 23.5237 174.104 23.9907 173.968 24.5488ZM186.713 21.9633L185.642 28H184.697L185.62 22.7948H181.884L180.961 28H180.004L181.075 21.9633H186.713ZM189.821 28H188.876L189.81 22.7948H187.441L187.589 21.9633H193.261L193.113 22.7948H190.755L189.821 28ZM196.55 24.0705C198.008 24.0705 198.839 24.6855 198.839 25.7903C198.839 27.2141 197.78 28 195.878 28H193.053L194.124 21.9633H195.08L194.704 24.0705H196.55ZM196.049 27.1571C197.267 27.1571 197.882 26.6674 197.882 25.7903C197.882 25.1867 197.438 24.8905 196.47 24.8905H194.556L194.158 27.1571H196.049ZM200.343 28H199.397L200.456 21.9633H201.402L200.343 28ZM92.1628 40H91.206L92.2767 33.9633H93.2334L92.7892 36.4919H96.5251L96.9693 33.9633H97.9147L96.844 40H95.8987L96.377 37.3347H92.6411L92.1628 40ZM98.3347 38.5649C98.3347 37.3689 99.1092 36.788 101.228 36.4236C102.64 36.1844 103.096 35.9338 103.096 35.3985C103.096 34.8973 102.583 34.6012 101.718 34.6012C100.624 34.6012 99.8723 35.1365 99.6104 36.0932L98.6878 35.8882C99.0181 34.6125 100.214 33.7925 101.729 33.7925C103.198 33.7925 104.075 34.4303 104.075 35.444C104.075 35.5465 104.064 35.6718 104.041 35.7971L103.301 40H102.401L102.526 39.2369H102.515C102.059 39.8292 101.216 40.1708 100.248 40.1708C99.1206 40.1708 98.3347 39.5102 98.3347 38.5649ZM102.743 37.8473L102.959 36.5944H102.936C102.72 36.8222 102.333 36.9703 101.41 37.1525C99.8496 37.4373 99.2801 37.8131 99.2801 38.4965C99.2801 39.0432 99.7015 39.3394 100.476 39.3394C101.524 39.3394 102.606 38.6218 102.743 37.8473ZM112.633 33.9633H113.898L110.617 36.845L112.827 40H111.711L109.854 37.312H108.966L108.488 40H107.542L108.613 33.9633H109.558L109.125 36.3894H109.923L112.633 33.9633ZM113.236 38.5649C113.236 37.3689 114.011 36.788 116.129 36.4236C117.541 36.1844 117.997 35.9338 117.997 35.3985C117.997 34.8973 117.484 34.6012 116.619 34.6012C115.525 34.6012 114.774 35.1365 114.512 36.0932L113.589 35.8882C113.919 34.6125 115.115 33.7925 116.63 33.7925C118.1 33.7925 118.977 34.4303 118.977 35.444C118.977 35.5465 118.965 35.6718 118.942 35.7971L118.202 40H117.302L117.428 39.2369H117.416C116.961 39.8292 116.118 40.1708 115.15 40.1708C114.022 40.1708 113.236 39.5102 113.236 38.5649ZM117.644 37.8473L117.86 36.5944H117.838C117.621 36.8222 117.234 36.9703 116.311 37.1525C114.751 37.4373 114.181 37.8131 114.181 38.4965C114.181 39.0432 114.603 39.3394 115.377 39.3394C116.425 39.3394 117.507 38.6218 117.644 37.8473ZM127.439 33.9633H128.612L125.753 36.8564L127.541 40H126.436L124.99 37.3234H124.238L123.76 40H122.803L123.281 37.3234H122.701L120.309 40H119.022L122.006 36.788L120.092 33.9633H121.163L122.758 36.3894H123.441L123.874 33.9633H124.83L124.398 36.3894H125.058L127.439 33.9633ZM133.951 39.1571H134.919L134.532 41.3326H133.643L133.883 40H128.677L128.438 41.3326H127.55L127.937 39.1571H128.29C128.985 38.9293 129.19 38.5649 129.623 36.5488L130.17 33.9633H134.862L133.951 39.1571ZM130.523 36.5944C130.375 37.3347 130.215 37.9042 130.067 38.2915C129.919 38.6788 129.737 38.9635 129.509 39.1571H133.006L133.769 34.8062H130.899L130.523 36.5944ZM138.894 36.0705C140.352 36.0705 141.183 36.6855 141.183 37.7903C141.183 39.2141 140.124 40 138.222 40H135.397L136.468 33.9633H137.424L137.048 36.0705H138.894ZM138.392 39.1571C139.611 39.1571 140.226 38.6674 140.226 37.7903C140.226 37.1867 139.782 36.8905 138.814 36.8905H136.9L136.502 39.1571H138.392ZM142.687 40H141.741L142.8 33.9633H143.746L142.687 40ZM150.698 33.9633L149.627 40H148.682L149.502 35.3187H149.491L145.06 40H144.035L145.106 33.9633H146.051L145.231 38.6446H145.242L149.662 33.9633H150.698ZM146.541 31.9587H147.235C147.179 32.5396 147.475 32.8471 148.067 32.8471C148.671 32.8471 149.058 32.5396 149.183 31.9587H149.878C149.73 32.8813 149.058 33.3938 148.056 33.3938C147.042 33.3938 146.45 32.8357 146.541 31.9587ZM159.348 39.1571H160.316L159.928 41.3326H159.04L159.279 40H154.074L153.835 41.3326H152.946L153.334 39.1571H153.687C154.382 38.9293 154.587 38.5649 155.019 36.5488L155.566 33.9633H160.259L159.348 39.1571ZM155.919 36.5944C155.771 37.3347 155.612 37.9042 155.464 38.2915C155.316 38.6788 155.133 38.9635 154.905 39.1571H158.402L159.165 34.8062H156.295L155.919 36.5944ZM161.713 37.3234C161.713 38.6104 162.465 39.3622 163.831 39.3622C164.652 39.3622 165.46 38.8724 166.053 38.0865L166.759 38.6446C166.109 39.5672 164.97 40.1708 163.831 40.1708C161.884 40.1708 160.756 39.066 160.756 37.3234C160.733 35.3757 162.305 33.7583 164.264 33.7925C166.053 33.7925 167.248 34.9998 167.248 36.6855C167.248 36.9475 167.237 37.1525 167.226 37.3234H161.713ZM161.804 36.5488H166.28C166.326 35.4212 165.506 34.6012 164.264 34.6012C163.672 34.6012 163.148 34.7834 162.693 35.1593C162.237 35.5237 161.941 35.9907 161.804 36.5488ZM168.797 40H167.841L168.911 33.9633H169.868L169.424 36.4919H173.16L173.604 33.9633H174.549L173.479 40H172.533L173.012 37.3347H169.276L168.797 40ZM178.307 36.0705C179.764 36.0705 180.596 36.6855 180.596 37.7903C180.596 39.2141 179.537 40 177.635 40H174.81L175.881 33.9633H176.837L176.461 36.0705H178.307ZM177.805 39.1571C179.024 39.1571 179.639 38.6674 179.639 37.7903C179.639 37.1867 179.195 36.8905 178.227 36.8905H176.313L175.915 39.1571H177.805Z" fill="#A6ED49"/>
</svg>
