<svg width="1051" height="286" viewBox="0 0 1051 286" fill="none" xmlns="http://www.w3.org/2000/svg">
<path fill-rule="evenodd" clip-rule="evenodd" d="M497.484 200.348C523.484 202.26 538.269 214.75 538.27 234.759C538.27 259.741 516.6 275.928 484.099 276.438L482.442 286H458.099L459.882 275.928C433.881 273.889 419.097 261.652 419.097 241.387C419.098 216.406 440.767 200.221 473.268 199.712L474.667 191.68H499.011L497.484 200.348ZM469.823 219.337C452.873 219.847 442.551 228.26 442.55 241.387C442.55 250.946 449.431 256.173 463.196 257.066L469.823 219.337ZM487.543 256.813C504.494 256.302 514.816 247.887 514.816 234.759C514.815 225.201 507.934 219.977 494.17 219.084L487.543 256.813Z" fill="#E1FAC0"/>
<path d="M228.879 260.506H253.223L264.951 194.231H289.037L277.313 260.506H301.656L310.494 210.562H335.343L322.432 283.449H199.945L215.751 194.231H240.604L228.879 260.506Z" fill="#E1FAC0"/>
<path d="M417.641 215.77H372.522L370.228 228.515H411.271L407.7 248.271H366.788L364.364 261.91H409.741L405.79 283.449H335.814L351.493 194.231H421.596L417.641 215.77Z" fill="#E1FAC0"/>
<path d="M25.8286 195.69C29.4386 228.174 52.2043 248.732 80.3594 254.879C108.755 261.078 141.73 252.272 163.658 225.799L183.565 242.288C155.028 276.739 111.993 288.241 74.847 280.132C37.463 271.97 5.14791 243.6 0.141035 198.545L25.8286 195.69Z" fill="#A6ED49"/>
<path fill-rule="evenodd" clip-rule="evenodd" d="M211.245 0.00790874C211.246 0.0115541 211.248 0.0186992 211.249 0.0237262C211.253 0.0352215 211.259 0.052548 211.265 0.0711787C211.278 0.112521 211.293 0.17511 211.316 0.249125C211.363 0.399878 211.432 0.620755 211.518 0.901597C211.691 1.46634 211.943 2.29122 212.258 3.3454C212.888 5.45769 213.782 8.51085 214.844 12.31C215.764 15.6035 216.805 19.4717 217.924 23.7816C242.351 9.76787 272.447 7.70337 303.176 23.0896C319.249 31.1379 330.515 42.2453 337.682 56.0611C344.72 69.6291 347.373 84.9694 347.782 100.935C348.53 130.193 341.589 165.965 336.318 202.464H310.215C315.868 162.228 322.644 129.128 321.94 101.596C321.589 87.8701 319.332 76.8191 314.739 67.9638C310.275 59.358 303.18 52.0005 291.602 46.2029C266.055 33.4119 242.551 36.8867 224.251 50.4697C228.919 72.3983 233.123 98.5909 232.67 120.834C232.418 133.19 230.725 145.68 225.884 155.755C220.724 166.494 211.595 174.999 197.769 176.412C181.791 178.044 168.205 173.419 160.475 161.129C153.639 150.258 153.457 136.352 155.374 124.009C159.291 98.7934 173.744 69.0026 188.682 49.6551C190.899 46.7826 193.243 44.0372 195.701 41.4339C193.604 32.6986 191.57 25.0594 189.951 19.2657C188.933 15.6255 188.083 12.7187 187.491 10.7361C187.196 9.74654 186.962 8.9837 186.807 8.47817C186.731 8.22858 186.671 8.03894 186.633 7.91665C186.615 7.85764 186.602 7.81001 186.594 7.7822C186.59 7.77081 186.584 7.76 186.582 7.75452L211.241 0L211.245 0.00790874ZM202.609 74.7732C192.361 90.7803 183.5 111.338 180.915 127.975C179.313 138.288 180.537 144.47 182.359 147.368C183.289 148.846 185.625 151.673 195.143 150.701C198.141 150.394 200.425 149.055 202.585 144.56C205.065 139.398 206.605 131.252 206.828 120.308C207.108 106.56 205.294 90.5081 202.609 74.7732Z" fill="#A6ED49"/>
<path fill-rule="evenodd" clip-rule="evenodd" d="M56.6965 0.0395437C56.6989 0.0462569 56.7049 0.0567537 56.7083 0.0672243C56.7154 0.0904354 56.7236 0.125838 56.736 0.166084C56.7621 0.250132 56.8032 0.374901 56.8507 0.529886C56.9464 0.842075 57.0823 1.29802 57.258 1.88228C57.6109 3.05578 58.119 4.76365 58.7409 6.92411C59.9461 11.111 61.5884 17.0243 63.411 24.1177C69.8674 20.5515 76.7676 17.8167 84.0528 16.0113C103.927 11.0873 125.693 13.2994 147.9 22.7574C162.616 29.0254 173.346 38.3828 181.101 49.3071C175.009 56.2797 169.628 65.4433 165.461 73.6858C159.794 61.7759 150.96 52.1573 137.769 46.539C119.884 38.9224 103.874 37.7311 90.2691 41.1017C82.939 42.9185 76.0157 46.1374 69.6391 50.7227C71.5721 59.9164 73.4023 69.7569 74.8431 79.6727C77.7403 99.6125 79.2636 121.025 76.3181 138.32C74.8421 146.984 72.0768 155.679 66.8948 162.699C61.4066 170.131 53.5024 175.228 43.3821 176.397C27.4775 178.231 13.8792 173.698 6.14377 161.378C-0.654777 150.548 -0.861144 136.637 1.01495 124.282C4.85221 99.0165 19.151 69.0555 34.1289 49.6551C36.3358 46.7966 38.6597 44.0806 41.0886 41.5209C40.2242 37.8832 39.3727 34.4249 38.5499 31.2079C36.7308 24.0963 35.0879 18.1882 33.9035 14.0736C33.3121 12.0192 32.8332 10.411 32.5076 9.32836C32.3454 8.78904 32.2186 8.37636 32.1359 8.10646C32.0949 7.97289 32.0646 7.86956 32.0449 7.80593C32.0358 7.77644 32.0293 7.75231 32.0251 7.73871C32.0239 7.7348 32.022 7.72934 32.0212 7.72684C32.0466 7.71969 32.5947 7.54532 44.3549 3.87528C55.8124 0.299687 56.6369 0.0469623 56.6965 0.031635V0.0395437ZM47.9375 74.9907C37.8034 90.9697 29.0962 111.518 26.5681 128.161C24.9926 138.537 26.2234 144.755 28.0312 147.636C28.9039 149.026 31.0944 151.792 40.4163 150.717C42.9108 150.429 44.5532 149.44 46.0988 147.348C47.9503 144.84 49.7158 140.555 50.8361 133.978C53.0825 120.787 52.0633 102.641 49.2662 83.3898C48.8586 80.5843 48.4058 77.7793 47.9375 74.9907Z" fill="#A6ED49"/>
<path d="M368.936 82L376.379 44.6423H409.085L401.57 82H397.992L405.006 46.7893L405.793 47.8628H378.311L379.456 46.7893L372.514 82H368.936ZM431.981 82.2863C428.641 82.2863 425.73 81.666 423.249 80.4255C420.768 79.1373 418.836 77.3243 417.453 74.9865C416.117 72.6487 415.449 69.9053 415.449 66.7564C415.449 62.4624 416.355 58.6455 418.168 55.3057C420.029 51.9183 422.558 49.2464 425.754 47.2903C428.999 45.3341 432.696 44.3561 436.847 44.3561C440.235 44.3561 443.145 45.0002 445.578 46.2884C448.059 47.5288 449.968 49.318 451.303 51.6558C452.687 53.946 453.379 56.6893 453.379 59.886C453.379 64.18 452.449 68.0207 450.588 71.4082C448.775 74.7479 446.246 77.3959 443.002 79.352C439.805 81.3082 436.131 82.2863 431.981 82.2863ZM432.267 79.0658C435.654 79.0658 438.66 78.2547 441.284 76.6325C443.908 75.0103 445.984 72.7679 447.51 69.9053C449.037 66.9949 449.801 63.7267 449.801 60.1007C449.801 56.093 448.632 53.0156 446.294 50.8686C444.004 48.6739 440.759 47.5766 436.561 47.5766C433.221 47.5766 430.215 48.4115 427.543 50.0814C424.919 51.7036 422.844 53.946 421.317 56.8086C419.79 59.6713 419.027 62.9156 419.027 66.5417C419.027 70.5017 420.172 73.579 422.462 75.7737C424.8 77.9684 428.068 79.0658 432.267 79.0658ZM452.427 81.8569L453.286 78.7795C453.667 78.8272 454.001 78.8988 454.287 78.9942C454.574 79.0419 454.812 79.0658 455.003 79.0658C456.721 79.0658 458.247 78.3024 459.583 76.7757C460.919 75.2012 462.184 72.8156 463.376 69.619C464.569 66.4224 465.786 62.3431 467.026 57.3812L470.247 44.6423H496.512L488.997 82H485.419L492.432 46.6462L493.291 47.7913H471.893L473.038 46.6462L470.247 57.8821C469.197 62.1284 468.148 65.8021 467.098 68.9033C466.048 71.9568 464.927 74.4855 463.734 76.4894C462.589 78.4932 461.349 79.9723 460.013 80.9265C458.725 81.8807 457.246 82.3578 455.576 82.3578C455.051 82.3578 454.55 82.3101 454.073 82.2147C453.596 82.167 453.047 82.0477 452.427 81.8569ZM519.916 82.2863C516.433 82.2863 513.403 81.666 510.827 80.4255C508.25 79.1373 506.27 77.3243 504.887 74.9865C503.551 72.6487 502.883 69.8576 502.883 66.6132C502.883 62.3669 503.765 58.5739 505.531 55.2342C507.344 51.8944 509.777 49.2464 512.83 47.2903C515.932 45.3341 519.415 44.3561 523.279 44.3561C526.571 44.3561 529.386 44.9763 531.724 46.2168C534.062 47.4573 535.875 49.2464 537.163 51.5843C538.499 53.8744 539.167 56.6655 539.167 59.9575C539.167 60.6732 539.119 61.3889 539.024 62.1045C538.928 62.8202 538.833 63.4882 538.738 64.1084H505.602L506.103 61.3173H537.02L535.589 62.5339C536.113 59.2419 535.899 56.4985 534.944 54.3038C533.99 52.0614 532.487 50.3676 530.436 49.2226C528.432 48.0298 526.023 47.4334 523.208 47.4334C519.963 47.4334 517.053 48.2684 514.477 49.9382C511.948 51.5604 509.968 53.8028 508.536 56.6655C507.105 59.4804 506.39 62.7486 506.39 66.4701C506.39 70.5255 507.558 73.6506 509.896 75.8453C512.234 77.9923 515.669 79.0658 520.202 79.0658C522.874 79.0658 525.307 78.6364 527.502 77.7776C529.744 76.8711 531.581 75.6306 533.012 74.0561L534.658 76.561C533.036 78.3263 530.913 79.7337 528.289 80.7834C525.712 81.7853 522.921 82.2863 519.916 82.2863ZM555.845 82.3578C549.929 82.3578 545.253 80.6641 541.818 77.2766L543.607 74.8434C544.943 76.2747 546.661 77.3482 548.76 78.0638C550.907 78.7795 553.269 79.1373 555.845 79.1373C558.469 79.1373 560.807 78.7557 562.859 77.9923C564.91 77.2289 566.532 76.2031 567.725 74.9149C568.918 73.6267 569.514 72.1477 569.514 70.4778C569.514 68.4739 568.632 66.8995 566.866 65.7544C565.149 64.6094 562.716 64.0368 559.567 64.0368H553.77L554.271 61.1742H559.28C562.811 61.1742 565.674 60.4824 567.868 59.0987C570.063 57.7151 571.16 55.9498 571.16 53.8028C571.16 51.8467 570.302 50.3199 568.584 49.2226C566.914 48.0775 564.6 47.505 561.642 47.505C559.638 47.505 557.634 47.7913 555.631 48.3638C553.674 48.8886 551.647 49.6281 549.547 50.5823L548.402 47.5766C550.692 46.4792 552.959 45.6681 555.201 45.1433C557.444 44.5708 559.638 44.2845 561.785 44.2845C564.409 44.2845 566.699 44.6662 568.656 45.4296C570.612 46.1929 572.115 47.2426 573.164 48.5785C574.262 49.9144 574.81 51.5127 574.81 53.3734C574.81 54.9479 574.381 56.4031 573.522 57.739C572.663 59.0272 571.399 60.1245 569.729 61.031C568.107 61.8898 566.175 62.5101 563.932 62.8918L563.861 62.2477C566.914 62.7725 569.204 63.7506 570.731 65.1819C572.306 66.5655 573.093 68.4024 573.093 70.6925C573.093 72.8872 572.353 74.8672 570.874 76.6325C569.395 78.3978 567.344 79.8053 564.719 80.8549C562.095 81.8569 559.137 82.3578 555.845 82.3578ZM581.651 82L589.093 44.6423H592.672L589.237 61.6751H614.643L618.078 44.6423H621.656L614.142 82H610.563L614.07 64.8241H588.664L585.229 82H581.651ZM663.948 82L671.462 44.6423H675.041L667.526 82H663.948ZM647.273 58.1684C651.424 58.1684 654.525 58.9795 656.577 60.6016C658.676 62.2238 659.726 64.7048 659.726 68.0446C659.726 70.8595 659.01 73.3166 657.579 75.4159C656.195 77.5152 654.215 79.1373 651.639 80.2824C649.062 81.4275 646.056 82 642.621 82H628.093L635.536 44.7139H639.114L636.466 58.1684H647.273ZM642.621 79.2089C645.341 79.2089 647.702 78.7557 649.706 77.8491C651.758 76.8949 653.356 75.6067 654.501 73.9846C655.646 72.3624 656.219 70.454 656.219 68.2592C656.219 63.3927 652.879 60.9595 646.199 60.9595H635.894L632.244 79.2089H642.621ZM698.488 82.2863C695.005 82.2863 691.975 81.666 689.399 80.4255C686.822 79.1373 684.842 77.3243 683.459 74.9865C682.123 72.6487 681.455 69.8576 681.455 66.6132C681.455 62.3669 682.338 58.5739 684.103 55.2342C685.916 51.8944 688.349 49.2464 691.403 47.2903C694.504 45.3341 697.987 44.3561 701.851 44.3561C705.143 44.3561 707.958 44.9763 710.296 46.2168C712.634 47.4573 714.447 49.2464 715.735 51.5843C717.071 53.8744 717.739 56.6655 717.739 59.9575C717.739 60.6732 717.691 61.3889 717.596 62.1045C717.501 62.8202 717.405 63.4882 717.31 64.1084H684.174L684.675 61.3173H715.592L714.161 62.5339C714.686 59.2419 714.471 56.4985 713.517 54.3038C712.562 52.0614 711.06 50.3676 709.008 49.2226C707.004 48.0298 704.595 47.4334 701.78 47.4334C698.535 47.4334 695.625 48.2684 693.049 49.9382C690.52 51.5604 688.54 53.8028 687.109 56.6655C685.677 59.4804 684.962 62.7486 684.962 66.4701C684.962 70.5255 686.131 73.6506 688.468 75.8453C690.806 77.9923 694.241 79.0658 698.774 79.0658C701.446 79.0658 703.879 78.6364 706.074 77.7776C708.316 76.8711 710.153 75.6306 711.584 74.0561L713.23 76.561C711.608 78.3263 709.485 79.7337 706.861 80.7834C704.285 81.7853 701.494 82.2863 698.488 82.2863ZM761.816 82.2863C758.571 82.2863 755.78 81.7137 753.442 80.5687C751.152 79.3759 749.411 77.6822 748.218 75.4875C747.025 73.245 746.405 70.5494 746.357 67.4005C746.357 62.9156 747.192 58.9556 748.862 55.5204C750.58 52.0375 752.965 49.318 756.019 47.3619C759.12 45.358 762.722 44.3561 766.825 44.3561C770.07 44.3561 772.885 44.9763 775.27 46.2168C777.703 47.4573 779.588 49.2464 780.924 51.5843C782.307 53.9221 782.999 56.6893 782.999 59.886C782.999 63.1303 782.474 66.1123 781.425 68.8318C780.375 71.5513 778.896 73.913 776.988 75.9169C775.127 77.9207 772.908 79.4952 770.332 80.6402C767.756 81.7376 764.917 82.2863 761.816 82.2863ZM738.843 95.8839L749.077 44.6423H752.584L750.222 56.3077L748.218 62.8202L747.717 69.6906L742.421 95.8839H738.843ZM761.887 79.0658C765.275 79.0658 768.28 78.2547 770.905 76.6325C773.529 75.0103 775.58 72.7679 777.059 69.9053C778.586 66.9949 779.349 63.7267 779.349 60.1007C779.349 56.093 778.18 53.0156 775.843 50.8686C773.552 48.6739 770.308 47.5766 766.11 47.5766C762.77 47.5766 759.764 48.3876 757.092 50.0098C754.468 51.632 752.393 53.8744 750.866 56.7371C749.339 59.5997 748.576 62.8679 748.576 66.5417C748.576 70.5017 749.745 73.579 752.083 75.7737C754.42 77.9684 757.689 79.0658 761.887 79.0658ZM806.505 82.2863C803.023 82.2863 799.993 81.666 797.417 80.4255C794.84 79.1373 792.86 77.3243 791.477 74.9865C790.141 72.6487 789.473 69.8576 789.473 66.6132C789.473 62.3669 790.355 58.5739 792.121 55.2342C793.934 51.8944 796.367 49.2464 799.42 47.2903C802.522 45.3341 806.004 44.3561 809.869 44.3561C813.161 44.3561 815.976 44.9763 818.314 46.2168C820.652 47.4573 822.465 49.2464 823.753 51.5843C825.089 53.8744 825.757 56.6655 825.757 59.9575C825.757 60.6732 825.709 61.3889 825.614 62.1045C825.518 62.8202 825.423 63.4882 825.327 64.1084H792.192L792.693 61.3173H823.61L822.179 62.5339C822.703 59.2419 822.489 56.4985 821.534 54.3038C820.58 52.0614 819.077 50.3676 817.026 49.2226C815.022 48.0298 812.612 47.4334 809.798 47.4334C806.553 47.4334 803.643 48.2684 801.066 49.9382C798.538 51.5604 796.558 53.8028 795.126 56.6655C793.695 59.4804 792.979 62.7486 792.979 66.4701C792.979 70.5255 794.148 73.6506 796.486 75.8453C798.824 77.9923 802.259 79.0658 806.792 79.0658C809.464 79.0658 811.897 78.6364 814.091 77.7776C816.334 76.8711 818.171 75.6306 819.602 74.0561L821.248 76.561C819.626 78.3263 817.503 79.7337 814.879 80.7834C812.302 81.7853 809.511 82.2863 806.505 82.2863ZM832.631 82L840.073 44.6423H843.652L836.853 78.8511H861.615L868.485 44.6423H872.064L864.549 82H832.631ZM865.48 91.3036L867.483 81.499L868.342 82H860.971L861.615 78.8511H871.42L868.843 91.3036H865.48ZM896.036 82.2863C892.553 82.2863 889.524 81.666 886.947 80.4255C884.371 79.1373 882.391 77.3243 881.007 74.9865C879.671 72.6487 879.003 69.8576 879.003 66.6132C879.003 62.3669 879.886 58.5739 881.651 55.2342C883.464 51.8944 885.898 49.2464 888.951 47.2903C892.052 45.3341 895.535 44.3561 899.4 44.3561C902.692 44.3561 905.507 44.9763 907.845 46.2168C910.182 47.4573 911.995 49.2464 913.284 51.5843C914.62 53.8744 915.288 56.6655 915.288 59.9575C915.288 60.6732 915.24 61.3889 915.144 62.1045C915.049 62.8202 914.954 63.4882 914.858 64.1084H881.723L882.224 61.3173H913.141L911.709 62.5339C912.234 59.2419 912.019 56.4985 911.065 54.3038C910.111 52.0614 908.608 50.3676 906.556 49.2226C904.553 48.0298 902.143 47.4334 899.328 47.4334C896.084 47.4334 893.174 48.2684 890.597 49.9382C888.068 51.5604 886.088 53.8028 884.657 56.6655C883.226 59.4804 882.51 62.7486 882.51 66.4701C882.51 70.5255 883.679 73.6506 886.017 75.8453C888.355 77.9923 891.79 79.0658 896.322 79.0658C898.994 79.0658 901.427 78.6364 903.622 77.7776C905.865 76.8711 907.701 75.6306 909.133 74.0561L910.779 76.561C909.157 78.3263 907.034 79.7337 904.409 80.7834C901.833 81.7853 899.042 82.2863 896.036 82.2863ZM922.161 82L929.604 44.6423H962.31L954.796 82H951.217L958.231 46.7893L959.018 47.8628H931.536L932.682 46.7893L925.74 82H922.161ZM975.544 82L982.486 46.7893L983.345 47.8628H967.815L968.459 44.6423H1001.16L1000.52 47.8628H984.919L986.064 46.7893L979.123 82H975.544ZM1035.74 82L1043.25 44.6423H1046.83L1039.31 82H1035.74ZM1019.06 58.1684C1023.21 58.1684 1026.31 58.9795 1028.36 60.6016C1030.46 62.2238 1031.51 64.7048 1031.51 68.0446C1031.51 70.8595 1030.8 73.3166 1029.37 75.4159C1027.98 77.5152 1026 79.1373 1023.43 80.2824C1020.85 81.4275 1017.84 82 1014.41 82H999.881L1007.32 44.7139H1010.9L1008.25 58.1684H1019.06ZM1014.41 79.2089C1017.13 79.2089 1019.49 78.7557 1021.49 77.8491C1023.55 76.8949 1025.14 75.6067 1026.29 73.9846C1027.43 72.3624 1028.01 70.454 1028.01 68.2592C1028.01 63.3927 1024.67 60.9595 1017.99 60.9595H1007.68L1004.03 79.2089H1014.41ZM368.936 158L376.379 120.642H379.957L376.522 137.675H401.928L405.363 120.642H408.942L401.427 158H397.849L401.356 140.824H375.95L372.514 158H368.936ZM431.481 158.286C428.285 158.286 425.47 157.666 423.036 156.426C420.603 155.185 418.719 153.396 417.383 151.058C416.047 148.72 415.379 145.953 415.379 142.756C415.379 139.512 415.88 136.53 416.882 133.811C417.931 131.091 419.41 128.729 421.319 126.725C423.227 124.722 425.47 123.171 428.046 122.074C430.622 120.929 433.437 120.356 436.491 120.356C439.783 120.356 442.574 120.952 444.864 122.145C447.154 123.29 448.896 124.984 450.089 127.226C451.329 129.421 451.949 132.093 451.949 135.242C451.997 139.679 451.162 143.639 449.444 147.122C447.775 150.605 445.389 153.348 442.288 155.352C439.234 157.308 435.632 158.286 431.481 158.286ZM432.197 155.066C435.584 155.066 438.59 154.255 441.214 152.633C443.838 151.01 445.914 148.768 447.441 145.905C448.967 142.995 449.731 139.727 449.731 136.101C449.731 132.093 448.562 129.016 446.224 126.869C443.934 124.674 440.689 123.577 436.491 123.577C433.151 123.577 430.145 124.411 427.474 126.081C424.849 127.704 422.774 129.946 421.247 132.809C419.721 135.671 418.957 138.916 418.957 142.542C418.957 146.502 420.102 149.579 422.392 151.774C424.73 153.968 427.998 155.066 432.197 155.066ZM445.795 158L448.085 146.335L450.16 139.822L450.661 132.952L453.094 120.642H456.673L449.23 158H445.795ZM507.793 158L495.556 139.25L498.561 137.89L511.873 158H507.793ZM480.169 158L487.683 120.642H491.262L483.747 158H480.169ZM486.109 140.681L486.681 137.604H498.418L497.846 140.681H486.109ZM498.633 139.679L495.126 139.106L514.234 120.642H518.457L498.633 139.679ZM534.118 158.286C530.921 158.286 528.106 157.666 525.673 156.426C523.239 155.185 521.355 153.396 520.019 151.058C518.683 148.72 518.015 145.953 518.015 142.756C518.015 139.512 518.516 136.53 519.518 133.811C520.568 131.091 522.047 128.729 523.955 126.725C525.864 124.722 528.106 123.171 530.682 122.074C533.259 120.929 536.074 120.356 539.127 120.356C542.419 120.356 545.21 120.952 547.5 122.145C549.791 123.29 551.532 124.984 552.725 127.226C553.965 129.421 554.586 132.093 554.586 135.242C554.633 139.679 553.798 143.639 552.081 147.122C550.411 150.605 548.025 153.348 544.924 155.352C541.871 157.308 538.268 158.286 534.118 158.286ZM534.833 155.066C538.221 155.066 541.227 154.255 543.851 152.633C546.475 151.01 548.55 148.768 550.077 145.905C551.604 142.995 552.367 139.727 552.367 136.101C552.367 132.093 551.198 129.016 548.86 126.869C546.57 124.674 543.326 123.577 539.127 123.577C535.787 123.577 532.782 124.411 530.11 126.081C527.486 127.704 525.41 129.946 523.884 132.809C522.357 135.671 521.593 138.916 521.593 142.542C521.593 146.502 522.739 149.579 525.029 151.774C527.366 153.968 530.635 155.066 534.833 155.066ZM548.431 158L550.721 146.335L552.796 139.822L553.297 132.952L555.731 120.642H559.309L551.866 158H548.431ZM610.155 158L600.351 139.25L603.5 137.89L614.306 158H610.155ZM591.19 140.538L591.763 137.604H603.356L602.784 140.538H591.19ZM603.714 139.679L600.279 139.106L616.739 120.642H620.89L603.714 139.679ZM564.21 158H559.701L578.523 137.675L581.314 139.25L564.21 158ZM588.828 158H585.25L592.765 120.642H596.343L588.828 158ZM589.902 140.538H578.38L579.024 137.604H590.474L589.902 140.538ZM577.95 139.679L568.36 120.642H572.153L581.314 139.106L577.95 139.679ZM648.131 156.282L654.644 123.863H635.178L632.816 133.31C632.148 135.934 631.432 138.558 630.669 141.182C629.953 143.758 629.118 146.12 628.164 148.267C627.258 150.414 626.208 152.155 625.015 153.491C623.87 154.78 622.534 155.519 621.008 155.71L617.286 154.851C618.813 154.946 620.173 154.398 621.365 153.205C622.606 151.965 623.703 150.295 624.657 148.195C625.659 146.048 626.542 143.639 627.305 140.967C628.116 138.295 628.88 135.576 629.596 132.809L632.601 120.642H658.866L651.71 156.282H648.131ZM613.35 167.304L615.855 154.851H658.007L655.574 167.304H652.139L653.928 158H618.574L616.785 167.304H613.35ZM702.214 158L709.728 120.642H713.306L705.792 158H702.214ZM685.539 134.168C689.69 134.168 692.791 134.979 694.842 136.602C696.942 138.224 697.991 140.705 697.991 144.045C697.991 146.859 697.276 149.317 695.844 151.416C694.461 153.515 692.481 155.137 689.904 156.282C687.328 157.427 684.322 158 680.887 158H666.359L673.802 120.714H677.38L674.732 134.168H685.539ZM680.887 155.209C683.606 155.209 685.968 154.756 687.972 153.849C690.024 152.895 691.622 151.607 692.767 149.985C693.912 148.362 694.484 146.454 694.484 144.259C694.484 139.393 691.145 136.959 684.465 136.959H674.16L670.51 155.209H680.887ZM719.721 158L727.235 120.642H730.813L724.372 152.704L757.15 120.642H760.657L753.142 158H749.492L756.005 125.867L723.156 158H719.721ZM745.27 114.845C742.169 114.845 739.807 114.058 738.185 112.484C736.61 110.862 736.038 108.738 736.467 106.114H739.115C738.781 108.023 739.187 109.573 740.332 110.766C741.524 111.959 743.218 112.555 745.413 112.555C747.56 112.555 749.421 111.983 750.995 110.838C752.617 109.645 753.667 108.071 754.144 106.114H756.72C756.196 108.834 754.907 110.981 752.856 112.555C750.804 114.082 748.276 114.845 745.27 114.845ZM809.93 156.282L816.443 123.863H796.976L794.615 133.31C793.947 135.934 793.231 138.558 792.468 141.182C791.752 143.758 790.917 146.12 789.963 148.267C789.056 150.414 788.007 152.155 786.814 153.491C785.669 154.78 784.333 155.519 782.806 155.71L779.085 154.851C780.612 154.946 781.971 154.398 783.164 153.205C784.405 151.965 785.502 150.295 786.456 148.195C787.458 146.048 788.341 143.639 789.104 140.967C789.915 138.295 790.679 135.576 791.394 132.809L794.4 120.642H820.665L813.508 156.282H809.93ZM775.149 167.304L777.654 154.851H819.806L817.373 167.304H813.938L815.727 158H780.373L778.584 167.304H775.149ZM844.492 158.286C841.009 158.286 837.979 157.666 835.403 156.426C832.826 155.137 830.846 153.324 829.463 150.986C828.127 148.649 827.459 145.858 827.459 142.613C827.459 138.367 828.341 134.574 830.107 131.234C831.92 127.894 834.353 125.246 837.406 123.29C840.508 121.334 843.991 120.356 847.855 120.356C851.147 120.356 853.962 120.976 856.3 122.217C858.638 123.457 860.451 125.246 861.739 127.584C863.075 129.874 863.743 132.665 863.743 135.958C863.743 136.673 863.695 137.389 863.6 138.105C863.504 138.82 863.409 139.488 863.314 140.108H830.178L830.679 137.317H861.596L860.165 138.534C860.689 135.242 860.475 132.499 859.521 130.304C858.566 128.061 857.063 126.368 855.012 125.223C853.008 124.03 850.599 123.433 847.784 123.433C844.539 123.433 841.629 124.268 839.053 125.938C836.524 127.56 834.544 129.803 833.113 132.665C831.681 135.48 830.966 138.749 830.966 142.47C830.966 146.526 832.134 149.651 834.472 151.845C836.81 153.992 840.245 155.066 844.778 155.066C847.45 155.066 849.883 154.636 852.078 153.778C854.32 152.871 856.157 151.631 857.588 150.056L859.234 152.561C857.612 154.326 855.489 155.734 852.865 156.783C850.288 157.785 847.497 158.286 844.492 158.286ZM870.617 158L878.06 120.642H881.638L878.203 137.675H903.609L907.044 120.642H910.622L903.108 158H899.529L903.036 140.824H877.63L874.195 158H870.617ZM936.382 134.168C940.581 134.168 943.706 134.979 945.757 136.602C947.809 138.224 948.835 140.705 948.835 144.045C948.835 146.859 948.119 149.317 946.688 151.416C945.304 153.515 943.324 155.137 940.748 156.282C938.219 157.427 935.213 158 931.73 158H917.059L924.574 120.642H928.081L925.433 134.168H936.382ZM931.73 155.209C934.45 155.209 936.812 154.756 938.816 153.849C940.867 152.895 942.465 151.607 943.61 149.985C944.756 148.362 945.328 146.454 945.328 144.259C945.328 139.393 942.012 136.959 935.38 136.959H924.86L921.21 155.209H931.73Z" fill="#A6ED49"/>
</svg>
