<svg width="30" height="23" viewBox="0 0 30 23" fill="none" xmlns="http://www.w3.org/2000/svg">
<g clip-path="url(#clip0_52_1762)">
<path d="M13.1435 18.9173L13.1535 18.9631C13.2119 19.2346 13.369 19.4604 13.5954 19.5986C13.8975 19.783 14.2935 19.7919 14.6582 19.6201L18.5851 17.7716C18.8569 17.9673 19.1866 18.0361 19.5 17.9522C19.7623 17.8819 19.9949 17.7085 20.155 17.4643L22.7108 13.5632C22.9026 13.2703 22.9594 12.9204 22.8659 12.6026C22.8415 12.5191 22.8058 12.44 22.7624 12.365C22.945 12.144 23.0395 11.8372 23.0063 11.5005L22.61 7.49689L22.6558 7.48605L22.6009 7.40296L22.5567 6.95553C22.5207 6.59312 22.3473 6.27988 22.0814 6.09584C21.926 5.9883 21.7488 5.93595 21.5656 5.92972C20.3822 4.38543 18.0995 1.83162 16.2608 2.32429C15.9897 2.39694 15.7386 2.53251 15.5142 2.72715C14.5769 3.54111 15.3393 6.00429 15.9628 7.57756L15.9562 7.57962C15.3895 7.7524 14.9681 8.40118 14.9964 9.05707L15.0056 9.26602C14.7848 9.36908 14.5934 9.51875 14.4539 9.70444L13.5066 10.9663C13.3785 11.1371 13.3009 11.3343 13.262 11.5384L12.799 11.7256C12.2762 11.9368 11.9249 12.4425 11.9024 12.9549C10.9438 12.9415 9.60222 12.98 8.62936 13.2407C8.6291 13.2407 8.6291 13.2407 8.62884 13.2408C7.85163 13.4491 7.40058 13.773 7.25018 14.231C7.08095 14.747 7.13809 15.2621 7.42003 15.762C8.32997 17.3744 11.5492 18.4639 13.1435 18.9173ZM8.03951 14.4896C8.05888 14.4302 8.17468 14.2222 8.8435 14.043C8.84376 14.0429 8.84376 14.0429 8.84376 14.0429C9.76897 13.795 11.1238 13.7705 12.039 13.7889L12.9444 17.9933C11.2218 17.4667 8.79582 16.5092 8.14315 15.3528C7.97861 15.061 7.9448 14.7786 8.03951 14.4896ZM12.7341 13.0676C12.7282 13.0402 12.7279 13.0105 12.7302 12.9794C12.744 12.8039 12.8863 12.5856 13.11 12.4956L13.352 12.3977C13.419 12.5513 13.5133 12.6936 13.6343 12.8155L17.9449 17.1543L14.5622 18.7469L14.3041 18.8682C14.2756 18.8816 14.2468 18.8922 14.219 18.8996C14.1425 18.9202 14.0732 18.9163 14.0286 18.8893C14.017 18.882 13.9816 18.8603 13.9659 18.7879L13.9474 18.7019L12.8055 13.3996L12.7341 13.0676ZM14.1711 11.4646L14.4601 11.0796L15.0501 10.2936L15.1184 10.2027C15.1928 10.1036 15.3171 10.0299 15.4529 9.98749C15.5921 9.94414 15.7426 9.93625 15.8684 9.97309C15.8886 9.97913 15.9097 9.98383 15.9286 9.99225L19.3768 11.5261L20.7234 12.1251L21.8773 12.6383C21.9167 12.6559 21.9495 12.6786 21.978 12.7037C22.0211 12.7415 22.0532 12.7862 22.0679 12.8371C22.0928 12.9213 22.0741 13.0173 22.015 13.1074L19.4598 17.0086C19.429 17.0556 19.3927 17.088 19.354 17.1129C19.3316 17.1276 19.309 17.1428 19.2846 17.1493C19.1966 17.1729 19.1011 17.1388 19.0167 17.0539L18.9538 16.9907L18.6105 16.645L14.2239 12.2301C14.1831 12.1889 14.1513 12.1391 14.1258 12.0854C14.0636 11.9541 14.0474 11.7961 14.0832 11.6545C14.1007 11.5853 14.1295 11.5202 14.1711 11.4646ZM15.827 9.02007C15.8137 8.71898 16.0121 8.43061 16.1983 8.37384L16.285 8.34746L16.687 8.22482L19.2261 7.45038L21.2126 6.84466L21.4779 6.76385L21.3854 6.3899L21.3789 6.36239L21.3865 6.39103L21.4859 6.76171C21.5335 6.74894 21.5726 6.75453 21.6081 6.77913C21.6722 6.82337 21.7173 6.91997 21.729 7.03733L21.7523 7.27433L21.7936 7.69182L22.1786 11.5825C22.1898 11.6937 22.1676 11.7877 22.1235 11.8382L16.2666 9.23273C16.1305 9.17226 15.983 9.13775 15.8316 9.12298L15.827 9.02007ZM16.0592 3.35418C16.1893 3.24129 16.3257 3.16688 16.4758 3.12665C17.5871 2.82889 19.361 4.50126 20.6746 6.14034L16.7643 7.33239C16.0593 5.54371 15.6419 3.71641 16.0592 3.35418Z" fill="#F8FFEE"/>
<path d="M7.87319 3.48608L7.74836 3.89802C7.48078 4.78103 7.62741 5.73771 8.14718 6.50004C8.66695 7.26237 8.81359 8.21905 8.54601 9.10206L8.42118 9.514" stroke="#A6ED49" stroke-width="0.547992" stroke-linecap="round"/>
<path d="M10.1017 5.4397L9.99966 5.71522C9.7238 6.46003 9.86723 7.2955 10.3757 7.90566C10.8842 8.51583 11.0276 9.35129 10.7517 10.0961L10.6497 10.3716" stroke="#A6ED49" stroke-width="0.547992" stroke-linecap="round"/>
<path d="M11.7453 2.15186L11.6204 2.5638C11.3528 3.4468 11.4995 4.40349 12.0193 5.16581C12.539 5.92814 12.6857 6.88482 12.4181 7.76783L12.2933 8.17977" stroke="#A6ED49" stroke-width="0.547992" stroke-linecap="round"/>
</g>
<defs>
<clipPath id="clip0_52_1762">
<rect width="29.4194" height="22.0645" fill="white"/>
</clipPath>
</defs>
</svg>
