<svg width="24" height="18" viewBox="0 0 24 18" fill="none" xmlns="http://www.w3.org/2000/svg">
<g clip-path="url(#clip0_52_1995)">
<path d="M10.722 15.4325L10.7301 15.4699C10.7778 15.6914 10.906 15.8756 11.0907 15.9883C11.3371 16.1387 11.6601 16.146 11.9577 16.0059L15.1612 14.4979C15.383 14.6575 15.6519 14.7136 15.9076 14.6451C16.1216 14.5878 16.3114 14.4464 16.4419 14.2471L18.527 11.0647C18.6834 10.8258 18.7297 10.5403 18.6535 10.281C18.6336 10.2129 18.6044 10.1484 18.569 10.0872C18.718 9.90689 18.7951 9.65666 18.768 9.38193L18.4447 6.11584L18.4821 6.107L18.4372 6.03921L18.4012 5.67421C18.3718 5.37856 18.2304 5.12303 18.0134 4.97289C17.8867 4.88515 17.7421 4.84245 17.5927 4.83736C16.6272 3.57755 14.7651 1.49417 13.2651 1.8961C13.0439 1.95536 12.8391 2.06595 12.656 2.22474C11.8914 2.88876 12.5133 4.8982 13.022 6.18166L13.0166 6.18333C12.5543 6.32428 12.2105 6.85356 12.2336 7.38863L12.2411 7.55908C12.061 7.64316 11.9049 7.76526 11.791 7.91674L11.0182 8.94613C10.9138 9.08551 10.8504 9.2464 10.8187 9.41285L10.441 9.56554C10.0144 9.73787 9.72788 10.1504 9.70952 10.5684C8.92757 10.5575 7.83308 10.5889 7.03944 10.8016C7.03922 10.8016 7.03922 10.8016 7.03901 10.8017C6.40497 10.9716 6.03701 11.2358 5.91431 11.6094C5.77626 12.0304 5.82287 12.4506 6.05288 12.8584C6.79519 14.1738 9.42143 15.0626 10.722 15.4325ZM6.55824 11.8204C6.57404 11.772 6.66851 11.6023 7.21412 11.4561C7.21434 11.456 7.21434 11.456 7.21434 11.456C7.96911 11.2538 9.0744 11.2338 9.82094 11.2488L10.5596 14.6787C9.15434 14.2491 7.17523 13.468 6.64279 12.5246C6.50856 12.2866 6.48097 12.0562 6.55824 11.8204ZM10.388 10.6604C10.3832 10.638 10.383 10.6138 10.3849 10.5884C10.3961 10.4453 10.5122 10.2672 10.6947 10.1937L10.8921 10.1139C10.9468 10.2392 11.0237 10.3553 11.1224 10.4547L14.6389 13.9943L11.8794 15.2935L11.6688 15.3925C11.6456 15.4034 11.6221 15.412 11.5994 15.4181C11.537 15.4348 11.4805 15.4317 11.4441 15.4096C11.4346 15.4037 11.4057 15.386 11.3929 15.3269L11.3779 15.2568L10.4463 10.9312L10.388 10.6604ZM11.5603 9.35265L11.7961 9.03861L12.2774 8.3974L12.3331 8.32325C12.3938 8.24241 12.4952 8.18223 12.606 8.14765C12.7196 8.11228 12.8424 8.10585 12.9449 8.13591C12.9615 8.14084 12.9786 8.14467 12.9941 8.15153L15.8071 9.40282L16.9057 9.89146L17.847 10.3102C17.8791 10.3245 17.9059 10.3431 17.9291 10.3635C17.9643 10.3943 17.9905 10.4308 18.0025 10.4723C18.0228 10.5411 18.0075 10.6193 17.9593 10.6929L15.8748 13.8754C15.8497 13.9137 15.82 13.9402 15.7885 13.9605C15.7702 13.9725 15.7517 13.9849 15.7319 13.9902C15.6601 14.0094 15.5822 13.9816 15.5133 13.9124L15.462 13.8608L15.1819 13.5787L11.6034 9.97716C11.5701 9.94351 11.5442 9.90292 11.5233 9.85913C11.4726 9.75198 11.4594 9.62307 11.4886 9.5076C11.5029 9.45111 11.5264 9.39802 11.5603 9.35265ZM12.9112 7.35844C12.9003 7.11281 13.0622 6.87756 13.2141 6.83126L13.2848 6.80974L13.6128 6.70968L15.6842 6.07791L17.3047 5.58376L17.5211 5.51784L17.4457 5.21277L17.4403 5.19033L17.4466 5.2137L17.5276 5.51609C17.5665 5.50568 17.5984 5.51024 17.6274 5.5303C17.6796 5.56639 17.7164 5.6452 17.7259 5.74094L17.745 5.93428L17.7787 6.27487L18.0928 9.44885C18.1019 9.53955 18.0838 9.61625 18.0478 9.65747L13.2698 7.53192C13.1588 7.48259 13.0384 7.45444 12.9149 7.44239L12.9112 7.35844ZM13.1006 2.73627C13.2068 2.64417 13.318 2.58347 13.4405 2.55065C14.3471 2.30774 15.7942 3.67204 16.8658 5.00919L13.6758 5.98165C13.1007 4.52246 12.7602 3.03177 13.1006 2.73627Z" fill="#013125"/>
<path d="M6.42263 2.84399L6.3208 3.18005C6.10251 3.9004 6.22213 4.68085 6.64616 5.30275C7.07018 5.92465 7.1898 6.7051 6.97151 7.42545L6.86968 7.7615" stroke="#013125" stroke-width="0.447046" stroke-linecap="round"/>
<path d="M8.24099 4.43774L8.15774 4.66251C7.9327 5.27012 8.04971 5.95169 8.46451 6.44945C8.87932 6.94722 8.99633 7.62878 8.77129 8.23639L8.68804 8.46116" stroke="#013125" stroke-width="0.447046" stroke-linecap="round"/>
<path d="M9.58181 1.75537L9.47998 2.09143C9.26169 2.81178 9.38131 3.59223 9.80534 4.21413C10.2294 4.83602 10.349 5.61647 10.1307 6.33682L10.0289 6.67288" stroke="#013125" stroke-width="0.447046" stroke-linecap="round"/>
</g>
<defs>
<clipPath id="clip0_52_1995">
<rect width="24" height="18" fill="white"/>
</clipPath>
</defs>
</svg>
