<svg width="24" height="18" viewBox="0 0 24 18" fill="none" xmlns="http://www.w3.org/2000/svg">
<path d="M14.8604 11.7314C14.6533 14.1556 12.6213 16.0585 10.1436 16.0586C7.66576 16.0586 5.6338 14.1556 5.42676 11.7314H14.8604Z" stroke="#013125" stroke-width="0.815789"/>
<path d="M14.8193 11.7907L16.669 3.31891C16.7891 2.76863 17.3141 2.40476 17.8715 2.48539C18.4835 2.57391 18.8944 3.15977 18.7692 3.7653L18.56 4.77694" stroke="#013125" stroke-width="0.815789" stroke-linecap="round"/>
<path d="M6.40313 4.77686L6.3052 5.07063C6.07369 5.76517 6.19766 6.52909 6.63692 7.11477C7.07618 7.70046 7.20015 8.46438 6.96864 9.15891L6.87071 9.45269" stroke="#013125" stroke-width="0.815789" stroke-linecap="round"/>
<path d="M9.20782 4.77686L9.10989 5.07063C8.87838 5.76517 9.00235 6.52909 9.44161 7.11477C9.88087 7.70046 10.0048 8.46438 9.77333 9.15891L9.6754 9.45269" stroke="#013125" stroke-width="0.815789" stroke-linecap="round"/>
<path d="M12.0135 4.77686L11.9156 5.07063C11.684 5.76517 11.808 6.52909 12.2473 7.11477C12.6865 7.70046 12.8105 8.46438 12.579 9.15891L12.4811 9.45269" stroke="#013125" stroke-width="0.815789" stroke-linecap="round"/>
</svg>
