<svg width="30" height="23" viewBox="0 0 30 23" fill="none" xmlns="http://www.w3.org/2000/svg">
<path d="M18.0928 14.4934C17.7869 17.3485 15.37 19.5725 12.4336 19.5725C9.49733 19.5724 7.0813 17.3485 6.77539 14.4934H18.0928Z" stroke="#F8FFEE" stroke-width="1.22581"/>
<path d="M18.166 14.453L20.4333 4.06825C20.5806 3.39371 21.2241 2.94767 21.9074 3.04651C22.6576 3.15502 23.1612 3.87317 23.0078 4.61543L22.7514 5.85551" stroke="#F8FFEE" stroke-width="1.22581" stroke-linecap="round"/>
<path d="M7.84953 5.85547L7.7295 6.21558C7.44571 7.06695 7.59767 8.00337 8.13612 8.7213C8.67457 9.43924 8.82653 10.3757 8.54274 11.227L8.4227 11.5871" stroke="#A6ED49" stroke-width="1.22581" stroke-linecap="round"/>
<path d="M11.287 5.85547L11.167 6.21558C10.8832 7.06695 11.0352 8.00337 11.5736 8.7213C12.1121 9.43924 12.264 10.3757 11.9802 11.227L11.8602 11.5871" stroke="#A6ED49" stroke-width="1.22581" stroke-linecap="round"/>
<path d="M14.7265 5.85547L14.6064 6.21558C14.3227 7.06695 14.4746 8.00337 15.0131 8.7213C15.5515 9.43924 15.7035 10.3757 15.4197 11.227L15.2997 11.5871" stroke="#A6ED49" stroke-width="1.22581" stroke-linecap="round"/>
</svg>
