<svg width="24" height="18" viewBox="0 0 24 18" fill="none" xmlns="http://www.w3.org/2000/svg">
<g clip-path="url(#clip0_52_1962)">
<mask id="path-1-inside-1_52_1962" fill="white">
<path d="M19.0879 13.656H13.5146C13.5146 13.0405 13.0158 12.541 12.4004 12.5408C11.7847 12.5408 11.2852 13.0403 11.2852 13.656H5.71094L7.71777 8.08179H17.0811L19.0879 13.656Z"/>
</mask>
<path d="M19.0879 13.656H13.5146C13.5146 13.0405 13.0158 12.541 12.4004 12.5408C11.7847 12.5408 11.2852 13.0403 11.2852 13.656H5.71094L7.71777 8.08179H17.0811L19.0879 13.656Z" fill="#F8FFEE"/>
<path d="M19.0879 13.656V14.3437H20.0664L19.7349 13.4231L19.0879 13.656ZM13.5146 13.656H12.8269V14.3437H13.5146V13.656ZM12.4004 12.5408L12.4007 11.8531H12.4004V12.5408ZM11.2852 13.656V14.3437H11.9729V13.656H11.2852ZM5.71094 13.656L5.06388 13.4231L4.73242 14.3437H5.71094V13.656ZM7.71777 8.08179V7.39407H7.23444L7.07072 7.84883L7.71777 8.08179ZM17.0811 8.08179L17.7281 7.84883L17.5644 7.39407H17.0811V8.08179ZM19.0879 13.656V12.9683H13.5146V13.656V14.3437H19.0879V13.656ZM13.5146 13.656H14.2024C14.2024 12.6612 13.3962 11.8535 12.4007 11.8531L12.4004 12.5408L12.4001 13.2285C12.6355 13.2286 12.8269 13.4198 12.8269 13.656H13.5146ZM12.4004 12.5408V11.8531C11.4049 11.8531 10.5974 12.6605 10.5974 13.656H11.2852H11.9729C11.9729 13.4202 12.1645 13.2285 12.4004 13.2285V12.5408ZM11.2852 13.656V12.9683H5.71094V13.656V14.3437H11.2852V13.656ZM5.71094 13.656L6.358 13.889L8.36483 8.31474L7.71777 8.08179L7.07072 7.84883L5.06388 13.4231L5.71094 13.656ZM7.71777 8.08179V8.7695H17.0811V8.08179V7.39407H7.71777V8.08179ZM17.0811 8.08179L16.434 8.31474L18.4408 13.889L19.0879 13.656L19.7349 13.4231L17.7281 7.84883L17.0811 8.08179Z" fill="#013125" mask="url(#path-1-inside-1_52_1962)"/>
<path d="M16.3008 16.9995H8.49707L7.24316 13.6558H7.97754L8.97461 16.312H15.8232L16.8203 13.6558H17.5547L16.3008 16.9995Z" fill="#013125"/>
<mask id="path-4-inside-2_52_1962" fill="white">
<path d="M19.0879 5.57422H13.5146C13.5145 4.95883 13.0158 4.46022 12.4004 4.45996C11.7848 4.45996 11.2853 4.95867 11.2852 5.57422H5.71094L7.71777 0.000976562H17.0811L19.0879 5.57422Z"/>
</mask>
<path d="M19.0879 5.57422H13.5146C13.5145 4.95883 13.0158 4.46022 12.4004 4.45996C11.7848 4.45996 11.2853 4.95867 11.2852 5.57422H5.71094L7.71777 0.000976562H17.0811L19.0879 5.57422Z" fill="#F8FFEE"/>
<path d="M19.0879 5.57422V6.26193H20.0665L19.7349 5.34123L19.0879 5.57422ZM13.5146 5.57422L12.8269 5.57437L12.8271 6.26193H13.5146V5.57422ZM12.4004 4.45996L12.4007 3.77225H12.4004V4.45996ZM11.2852 5.57422V6.26193H11.9727L11.9729 5.57437L11.2852 5.57422ZM5.71094 5.57422L5.06389 5.34123L4.73236 6.26193H5.71094V5.57422ZM7.71777 0.000976562V-0.686738H7.23447L7.07073 -0.232014L7.71777 0.000976562ZM17.0811 0.000976562L17.7281 -0.232014L17.5644 -0.686738H17.0811V0.000976562ZM19.0879 5.57422V4.8865H13.5146V5.57422V6.26193H19.0879V5.57422ZM13.5146 5.57422L14.2024 5.57406C14.2021 4.57885 13.3955 3.77266 12.4007 3.77225L12.4004 4.45996L12.4001 5.14768C12.636 5.14777 12.8269 5.33881 12.8269 5.57437L13.5146 5.57422ZM12.4004 4.45996V3.77225C11.4056 3.77225 10.5977 4.57819 10.5974 5.57406L11.2852 5.57422L11.9729 5.57437C11.9729 5.33915 12.164 5.14768 12.4004 5.14768V4.45996ZM11.2852 5.57422V4.8865H5.71094V5.57422V6.26193H11.2852V5.57422ZM5.71094 5.57422L6.35798 5.80721L8.36482 0.233967L7.71777 0.000976562L7.07073 -0.232014L5.06389 5.34123L5.71094 5.57422ZM7.71777 0.000976562V0.688691H17.0811V0.000976562V-0.686738H7.71777V0.000976562ZM17.0811 0.000976562L16.434 0.233967L18.4408 5.80721L19.0879 5.57422L19.7349 5.34123L17.7281 -0.232014L17.0811 0.000976562Z" fill="#013125" mask="url(#path-4-inside-2_52_1962)"/>
<path d="M16.3008 8.91919H8.49707L7.24316 5.57446H7.97754L8.97461 8.23169H15.8232L16.8203 5.57446H17.5547L16.3008 8.91919Z" fill="#013125"/>
</g>
<defs>
<clipPath id="clip0_52_1962">
<rect width="24" height="18" fill="white"/>
</clipPath>
</defs>
</svg>
