<svg width="30" height="23" viewBox="0 0 30 23" fill="none" xmlns="http://www.w3.org/2000/svg">
<g clip-path="url(#clip0_52_1962)">
<mask id="path-1-inside-1_52_1962" fill="white">
<path d="M23.3975 16.7397L16.5635 16.7388C16.5632 15.9844 15.9527 15.3726 15.1982 15.3726C14.4438 15.3727 13.8324 15.9844 13.832 16.7388H7L9.45898 9.90674H20.9375L23.3975 16.7397Z"/>
</mask>
<path d="M23.3975 16.7397L16.5635 16.7388C16.5632 15.9844 15.9527 15.3726 15.1982 15.3726C14.4438 15.3727 13.8324 15.9844 13.832 16.7388H7L9.45898 9.90674H20.9375L23.3975 16.7397Z" fill="#F8FFEE"/>
<path d="M23.3975 16.7397L23.3973 17.5828L24.597 17.5829L24.1906 16.4542L23.3975 16.7397ZM16.5635 16.7388L15.7205 16.7391L15.7208 17.5817L16.5634 17.5818L16.5635 16.7388ZM15.1982 15.3726V14.5296H15.1981L15.1982 15.3726ZM13.832 16.7388V17.5818H14.6747L14.675 16.7391L13.832 16.7388ZM7 16.7388L6.20681 16.4533L5.80064 17.5818H7V16.7388ZM9.45898 9.90674V9.06373H8.86645L8.66579 9.62125L9.45898 9.90674ZM20.9375 9.90674L21.7307 9.62119L21.53 9.06373H20.9375V9.90674ZM23.3975 16.7397L23.3976 15.8967L16.5636 15.8958L16.5635 16.7388L16.5634 17.5818L23.3973 17.5828L23.3975 16.7397ZM16.5635 16.7388L17.4065 16.7384C17.406 15.5198 16.4194 14.5296 15.1982 14.5296V15.3726V16.2156C15.486 16.2156 15.7203 16.4489 15.7205 16.7391L16.5635 16.7388ZM15.1982 15.3726L15.1981 14.5296C13.978 14.5297 12.9895 15.519 12.989 16.7384L13.832 16.7388L14.675 16.7391C14.6752 16.4498 14.9097 16.2156 15.1984 16.2156L15.1982 15.3726ZM13.832 16.7388V15.8958H7V16.7388V17.5818H13.832V16.7388ZM7 16.7388L7.79319 17.0243L10.2522 10.1922L9.45898 9.90674L8.66579 9.62125L6.20681 16.4533L7 16.7388ZM9.45898 9.90674V10.7497H20.9375V9.90674V9.06373H9.45898V9.90674ZM20.9375 9.90674L20.1443 10.1923L22.6043 17.0253L23.3975 16.7397L24.1906 16.4542L21.7307 9.62119L20.9375 9.90674Z" fill="#133520" mask="url(#path-1-inside-1_52_1962)"/>
<path d="M19.9805 20.8389H10.415L8.87793 16.7393H9.77734L10.999 19.9961H19.3965L20.6172 16.7393H21.5176L19.9805 20.8389Z" fill="#133520"/>
<mask id="path-4-inside-2_52_1962" fill="white">
<path d="M23.3975 6.83325H16.5645C16.5645 6.07857 15.9529 5.46704 15.1982 5.46704C14.4437 5.46715 13.832 6.07864 13.832 6.83325H7L9.45898 0.0012207H20.9375L23.3975 6.83325Z"/>
</mask>
<path d="M23.3975 6.83325H16.5645C16.5645 6.07857 15.9529 5.46704 15.1982 5.46704C14.4437 5.46715 13.832 6.07864 13.832 6.83325H7L9.45898 0.0012207H20.9375L23.3975 6.83325Z" fill="#F8FFEE"/>
<path d="M23.3975 6.83325V7.67626H24.597L24.1906 6.54767L23.3975 6.83325ZM16.5645 6.83325L15.7214 6.83325V7.67626H16.5645V6.83325ZM15.1982 5.46704V4.62404H15.1981L15.1982 5.46704ZM13.832 6.83325V7.67626H14.675L14.675 6.83325L13.832 6.83325ZM7 6.83325L6.20681 6.54777L5.80064 7.67626H7V6.83325ZM9.45898 0.0012207V-0.841784H8.86645L8.66579 -0.284265L9.45898 0.0012207ZM20.9375 0.0012207L21.7307 -0.284366L21.53 -0.841784H20.9375V0.0012207ZM23.3975 6.83325V5.99025H16.5645V6.83325V7.67626H23.3975V6.83325ZM16.5645 6.83325L17.4075 6.83325C17.4075 5.61299 16.4185 4.62404 15.1982 4.62404V5.46704V6.31005C15.4873 6.31005 15.7214 6.54415 15.7214 6.83325L16.5645 6.83325ZM15.1982 5.46704L15.1981 4.62404C13.9782 4.62422 12.989 5.61293 12.989 6.83325L13.832 6.83325L14.675 6.83325C14.675 6.54434 14.9091 6.31009 15.1984 6.31005L15.1982 5.46704ZM13.832 6.83325V5.99025H7V6.83325V7.67626H13.832V6.83325ZM7 6.83325L7.79319 7.11874L10.2522 0.286707L9.45898 0.0012207L8.66579 -0.284265L6.20681 6.54777L7 6.83325ZM9.45898 0.0012207V0.844226H20.9375V0.0012207V-0.841784H9.45898V0.0012207ZM20.9375 0.0012207L20.1443 0.286807L22.6043 7.11884L23.3975 6.83325L24.1906 6.54767L21.7307 -0.284366L20.9375 0.0012207Z" fill="#A6ED49" mask="url(#path-4-inside-2_52_1962)"/>
<path d="M19.9805 10.9329H10.415L8.87793 6.83325H9.77734L10.999 10.0901H19.3965L20.6172 6.83325H21.5176L19.9805 10.9329Z" fill="#133520"/>
</g>
<defs>
<clipPath id="clip0_52_1962">
<rect width="29.4194" height="22.0645" fill="white"/>
</clipPath>
</defs>
</svg>
