<svg width="24" height="18" viewBox="0 0 24 18" fill="none" xmlns="http://www.w3.org/2000/svg">
<path fill-rule="evenodd" clip-rule="evenodd" d="M9.80171 2.13184V4.18457C10.273 3.78923 10.875 3.56158 11.5087 3.56152C11.5392 3.56152 11.5705 3.56233 11.6015 3.56348C12.0962 2.86546 12.9094 2.43945 13.7705 2.43945C14.6315 2.43947 15.4448 2.86541 15.9394 3.56348C15.9705 3.56237 16.0017 3.56152 16.0322 3.56152C17.4962 3.56171 18.6875 4.75356 18.6875 6.21777C18.6874 6.48522 18.6457 6.7504 18.5673 7.00391H17.873C17.9784 6.75675 18.0341 6.48894 18.0341 6.21777C18.0341 5.11347 17.1363 4.21505 16.0322 4.21484C15.9598 4.21484 15.884 4.21902 15.8076 4.22754L15.5986 4.25098L15.4912 4.07031C15.131 3.46695 14.4717 3.09182 13.7705 3.0918C13.0692 3.0918 12.4099 3.46696 12.0498 4.07031L11.9423 4.25098L11.7334 4.22754C11.6568 4.21899 11.5811 4.21484 11.5087 4.21484C10.8116 4.21492 10.1653 4.57939 9.80171 5.1709V7.00391H8.66402L6.03218 4.37109C5.45658 5.15804 5.49195 6.25424 6.13667 7.00391H5.3398C4.73159 5.94412 4.87884 4.56559 5.78316 3.66113L6.01363 3.43066L6.79097 4.20703C7.10153 3.01465 8.18742 2.13184 9.47554 2.13184H9.80171ZM12.8544 7.00391H11.9316L10.7412 5.81348L11.2031 5.35156L12.8544 7.00391ZM14.0966 4.25684V7.00391H13.4443V4.25684H14.0966ZM16.7998 5.81348L15.6093 7.00391H14.6865L16.3378 5.35156L16.7998 5.81348ZM9.14839 2.80957C8.17554 2.96066 7.41946 3.77584 7.35835 4.77539L9.14839 6.56543V2.80957Z" fill="#013125"/>
<path d="M4.0791 7.44604V7.77239C4.0791 10.5704 5.57777 13.1356 8.00341 14.5141V16.2795H15.6548V14.5141C18.0804 13.1356 19.5791 10.5704 19.5791 7.77243V7.44608C16.5103 7.44618 9.39998 7.44618 4.0791 7.44604ZM8.65604 15.6268V14.6478H15.0022V15.6268H8.65604ZM15.2452 13.9951H8.41297C6.23582 12.7975 4.85172 10.5662 4.73917 8.09878H18.9191C18.8065 10.5662 17.4224 12.7975 15.2452 13.9951Z" fill="#013125"/>
</svg>
