<svg width="30" height="23" viewBox="0 0 30 23" fill="none" xmlns="http://www.w3.org/2000/svg">
<path fill-rule="evenodd" clip-rule="evenodd" d="M12.0145 2.61328V5.12891C12.5923 4.64438 13.3306 4.36626 14.1073 4.36621C14.1446 4.36621 14.1826 4.36677 14.2206 4.36816C14.8269 3.51243 15.8242 2.99023 16.8798 2.99023C17.9351 2.99029 18.9317 3.51262 19.538 4.36816C19.5759 4.36681 19.614 4.36622 19.6512 4.36621C21.446 4.36621 22.9061 5.82709 22.9061 7.62207C22.9061 7.94967 22.8556 8.27442 22.7596 8.58496H21.9081C22.0372 8.28214 22.1063 7.9543 22.1063 7.62207C22.1063 6.26825 21.0049 5.16602 19.6512 5.16602C19.5627 5.16603 19.4704 5.1722 19.3768 5.18262L19.121 5.21094L18.9891 4.98926C18.5477 4.24972 17.7393 3.7901 16.8798 3.79004C16.0202 3.79004 15.2119 4.24975 14.7704 4.98926L14.6386 5.21094L14.3827 5.18262C14.2889 5.17214 14.1959 5.16602 14.1073 5.16602C13.2528 5.16609 12.4602 5.61293 12.0145 6.33789V8.58496H10.62L7.39344 5.3584C6.68811 6.3228 6.73166 7.66607 7.52137 8.58496H6.54578C5.80041 7.28597 5.98047 5.59692 7.08875 4.48828L7.37195 4.20508L8.3241 5.15723C8.7047 3.69563 10.0352 2.61344 11.6141 2.61328H12.0145ZM15.7577 8.58496H14.6259L13.1669 7.12598L13.7323 6.56055L15.7577 8.58496ZM17.2792 5.21777V8.58496H16.4794V5.21777H17.2792ZM20.5927 7.12598L19.1337 8.58496H18.0028L20.0272 6.56055L20.5927 7.12598ZM11.2147 3.44434C10.0219 3.62932 9.09531 4.62807 9.02039 5.85352L11.2147 8.04785V3.44434Z" fill="#A6ED49"/>
<path d="M5 9.12744V9.52748C5 12.9573 6.83708 16.1017 9.81044 17.7915V19.9556H19.1896V17.7915C22.1629 16.1017 24 12.9574 24 9.52752V9.12748C20.2382 9.1276 11.5224 9.12761 5 9.12744ZM10.6104 19.1555V17.9554H18.3896V19.1555H10.6104ZM18.6875 17.1553H10.3125C7.64372 15.6872 5.94708 12.9521 5.80912 9.92756H23.1909C23.0529 12.9521 21.3563 15.6872 18.6875 17.1553Z" fill="#F8FFEE"/>
</svg>
