<svg width="30" height="23" viewBox="0 0 30 23" fill="none" xmlns="http://www.w3.org/2000/svg">
<g clip-path="url(#clip0_52_1781)">
<path d="M15.8731 6.95933C15.8731 6.95933 13.7625 3.69741 12.6789 1.70583C12.4872 1.35343 12.1635 1.08875 11.7755 0.986649L7.96875 -0.0151367" stroke="#A6ED49" stroke-width="0.813688"/>
<path d="M15.2119 1.56348C17.9043 1.56368 20.1104 3.73738 20.2988 6.48047H20.3184C20.9435 6.48047 21.4521 6.98958 21.4521 7.61523C21.4521 8.241 20.9437 8.75 20.3184 8.75H19.9082L18.8945 20.5078C18.878 20.7032 18.7136 20.8534 18.5176 20.8535H11.9053C11.7092 20.8533 11.5459 20.7031 11.5293 20.5078L10.5146 8.75H10.1045C9.47924 8.75 8.9707 8.241 8.9707 7.61523C8.97084 6.98958 9.47922 6.48047 10.1045 6.48047H10.124C10.2315 4.917 10.9941 3.54124 12.1299 2.64551L12.4902 3.32129C11.5867 4.07965 10.9781 5.20594 10.877 6.48047H19.5459C19.3611 4.15442 17.4881 2.32051 15.2119 2.32031C14.8125 2.32031 14.4252 2.37676 14.0576 2.48242L13.6973 1.80762C14.1761 1.65145 14.684 1.56348 15.2119 1.56348ZM11.6328 12.9111L12.2529 20.0967H18.1709L18.79 12.9111H11.6328ZM11.2744 8.75L11.5674 12.1543H18.8555L19.1494 8.75H11.2744ZM10.1045 7.2373C9.89624 7.23736 9.72756 7.40656 9.72754 7.61523C9.72754 7.8272 9.89285 7.99311 10.1045 7.99316H20.3184C20.5266 7.99316 20.6963 7.82396 20.6963 7.61523C20.6963 7.40325 20.53 7.2373 20.3184 7.2373H10.1045Z" fill="#F8FFEE"/>
</g>
<defs>
<clipPath id="clip0_52_1781">
<rect width="29.4194" height="22.0645" fill="white"/>
</clipPath>
</defs>
</svg>
