<svg width="24" height="18" viewBox="0 0 24 18" fill="none" xmlns="http://www.w3.org/2000/svg">
<g clip-path="url(#clip0_52_2002)">
<path d="M12.9747 6.08496C12.9747 6.08496 11.2528 3.42392 10.3689 1.79921C10.2124 1.51172 9.94842 1.2958 9.6319 1.21251L6.52637 0.395264" stroke="#013125" stroke-width="0.663798"/>
<path d="M12.4346 1.68311C14.6312 1.68311 16.4313 3.45686 16.585 5.69482H16.6016C17.1114 5.69506 17.5265 6.11026 17.5264 6.62061C17.5262 7.13095 17.1106 7.54639 16.6006 7.54639H16.2666L15.4395 17.1382C15.4258 17.2974 15.2917 17.4204 15.1318 17.4204H9.73828C9.5783 17.4204 9.44434 17.2974 9.43066 17.1382L8.60352 7.54639H8.26855C7.75863 7.54633 7.34392 7.13092 7.34375 6.62061C7.34375 6.11015 7.75844 5.69488 8.26855 5.69482H8.28418C8.37174 4.41957 8.99368 3.29671 9.91992 2.56592L10.2139 3.11768C9.47719 3.73636 8.9809 4.65543 8.89844 5.69482H15.9707C15.8201 3.79708 14.2917 2.30029 12.4346 2.30029C12.1087 2.30033 11.7931 2.34686 11.4932 2.43311L11.1992 1.88232C11.5898 1.75489 12.0039 1.68315 12.4346 1.68311ZM9.51562 10.9399L10.0215 16.8022H14.8486L15.3545 10.9399H9.51562ZM9.22266 7.54541L9.46191 10.3228H15.4072L15.6475 7.54541H9.22266ZM8.26855 6.31201C8.0987 6.31211 7.96094 6.45039 7.96094 6.62061C7.96119 6.79326 8.09611 6.92813 8.26855 6.92822H16.6016C16.7711 6.92799 16.9089 6.79051 16.9092 6.62061C16.9092 6.44766 16.7733 6.31201 16.6006 6.31201H8.26855Z" fill="#013125"/>
</g>
<defs>
<clipPath id="clip0_52_2002">
<rect width="24" height="18" fill="white"/>
</clipPath>
</defs>
</svg>
