<svg width="24" height="18" viewBox="0 0 24 18" fill="none" xmlns="http://www.w3.org/2000/svg">
<g clip-path="url(#clip0_52_1984)">
<path d="M12 0C7.58889 0 4 3.58874 4 8C4 10.182 4.87904 12.1619 6.30041 13.6066L4.44579 14.816L4.74727 15.2782L6.71283 13.9964C6.71977 14.0025 6.72694 14.0085 6.73396 14.0147L5.26645 15.7574L5.68858 16.1128L7.16071 14.3647C8.50548 15.3896 10.1825 15.9999 12 15.9999C16.411 15.9999 20 12.4112 20 7.99993C20 3.58866 16.4111 0 12 0ZM12 15.4482C10.3177 15.4482 8.7644 14.8869 7.51609 13.9427L8.39439 12.8998L8.41022 12.8894C9.41633 13.63 10.6577 14.0689 12 14.0689C15.3465 14.0689 18.0689 11.3464 18.0689 7.99993C18.0689 4.65346 15.3465 1.931 12 1.931C8.65353 1.931 5.93107 4.65353 5.93107 8C5.93107 9.79616 6.71612 11.4119 7.96032 12.5241L6.77219 13.2989C5.40256 11.9475 4.55173 10.0715 4.55173 7.99993C4.55173 3.89305 7.89312 0.551735 12 0.551735C16.1069 0.551735 19.4483 3.89305 19.4483 8C19.4483 12.107 16.1069 15.4482 12 15.4482ZM11.2526 10.3769L9.62471 11.4385L10.4576 10.4495L10.0355 10.0941L8.33533 12.113C7.20178 11.1017 6.48273 9.63497 6.48273 8C6.48273 4.95785 8.9577 2.48281 11.9999 2.48281C15.0422 2.48281 17.5171 4.95792 17.5171 8C17.5171 11.0421 15.0422 13.5172 11.9999 13.5172C10.8543 13.5172 9.78948 13.1657 8.90655 12.5656L11.5541 10.839L11.2526 10.3769Z" fill="#013125"/>
<path d="M13.925 8.4578L15.4418 9.56105C15.4897 9.59606 15.5466 9.61383 15.6039 9.61383C15.6468 9.61383 15.6896 9.6039 15.7292 9.58382C15.8216 9.53671 15.8798 9.44174 15.8798 9.33797V6.8197C15.8798 6.716 15.8216 6.62103 15.7292 6.57384C15.6371 6.52726 15.5258 6.53547 15.4418 6.59661L14.0009 7.64461C13.2664 6.65836 12.1221 6.07153 10.8822 6.07153C10.4649 6.07153 10.0603 6.1444 9.67581 6.26946C9.62265 6.27087 9.56934 6.2826 9.52261 6.31597C9.52104 6.31716 9.52037 6.31896 9.5188 6.32008C8.74727 6.60781 8.07555 7.13469 7.61184 7.84992C7.55256 7.94123 7.55256 8.05867 7.61184 8.15006C8.3338 9.2636 9.55635 9.92845 10.8823 9.92845C12.0792 9.92852 13.1885 9.38269 13.925 8.4578ZM15.3281 7.36143V8.79624L14.3418 8.07883L15.3281 7.36143ZM9.48087 9.06501C8.96975 8.82901 8.51866 8.46878 8.17776 8.00007C8.53844 7.50403 9.02261 7.12931 9.57099 6.89555C9.75913 7.26952 10.0613 8.13662 9.48087 9.06501ZM10.8822 9.37679C10.5821 9.37679 10.2895 9.33326 10.008 9.25733C10.6135 8.20082 10.3237 7.21405 10.0929 6.71697C10.348 6.65545 10.6126 6.62334 10.8822 6.62334C11.9593 6.62327 12.9574 7.13476 13.587 8.00007C12.9574 8.86537 11.9593 9.37679 10.8822 9.37679Z" fill="#013125"/>
</g>
<defs>
<clipPath id="clip0_52_1984">
<rect width="24" height="18" fill="white"/>
</clipPath>
</defs>
</svg>
