<svg width="30" height="23" viewBox="0 0 30 23" fill="none" xmlns="http://www.w3.org/2000/svg">
<g clip-path="url(#clip0_52_1984)">
<path d="M14.7098 0C9.3026 0 4.90332 4.3991 4.90332 9.80645C4.90332 12.4812 5.98086 14.9081 7.72318 16.679L5.44978 18.1616L5.81933 18.7281L8.22873 17.1568C8.23724 17.1643 8.24602 17.1717 8.25463 17.1793L6.45574 19.3155L6.97319 19.7512L8.77774 17.6083C10.4262 18.8647 12.4819 19.6128 14.7098 19.6128C20.1169 19.6128 24.5162 15.2137 24.5162 9.80636C24.5162 4.39901 20.1169 0 14.7098 0ZM14.7098 18.9365C12.6476 18.9365 10.7436 18.2485 9.21337 17.091L10.29 15.8126L10.3094 15.7999C11.5427 16.7078 13.0644 17.2457 14.7098 17.2457C18.8119 17.2457 22.1491 13.9085 22.1491 9.80636C22.1491 5.70424 18.8119 2.36703 14.7098 2.36703C10.6077 2.36703 7.27044 5.70433 7.27044 9.80645C7.27044 12.0082 8.23275 13.9887 9.7579 15.3521L8.30148 16.3019C6.62258 14.6453 5.57964 12.3457 5.57964 9.80636C5.57964 4.77213 9.67554 0.67632 14.7098 0.67632C19.744 0.67632 23.8399 4.77213 23.8399 9.80645C23.8399 14.8408 19.744 18.9365 14.7098 18.9365ZM13.7936 12.72L11.7981 14.0214L12.8191 12.8091L12.3017 12.3734L10.2176 14.8482C8.82808 13.6086 7.94667 11.8106 7.94667 9.80645C7.94667 6.07736 10.9805 3.04344 14.7097 3.04344C18.4389 3.04344 21.4727 6.07745 21.4727 9.80645C21.4727 13.5355 18.4389 16.5695 14.7097 16.5695C13.3053 16.5695 12.0001 16.1386 10.9178 15.403L14.1631 13.2865L13.7936 12.72Z" fill="#133520"/>
<path d="M17.0696 10.3675L18.9288 11.7199C18.9876 11.7628 19.0573 11.7846 19.1276 11.7846C19.1801 11.7846 19.2326 11.7724 19.2812 11.7478C19.3945 11.69 19.4658 11.5736 19.4658 11.4464V8.35949C19.4658 8.23237 19.3945 8.11596 19.2812 8.05812C19.1683 8.00101 19.0319 8.01108 18.9288 8.08603L17.1626 9.37067C16.2623 8.16172 14.8596 7.44238 13.3397 7.44238C12.8281 7.44238 12.3322 7.5317 11.8609 7.685C11.7957 7.68674 11.7304 7.70111 11.6731 7.74201C11.6712 7.74348 11.6703 7.74567 11.6684 7.74705C10.7227 8.09976 9.89929 8.7456 9.33087 9.62235C9.2582 9.73427 9.2582 9.87823 9.33087 9.99025C10.2158 11.3552 11.7145 12.1702 13.3398 12.1702C14.807 12.1703 16.1668 11.5012 17.0696 10.3675ZM18.7895 9.02354V10.7823L17.5805 9.90294L18.7895 9.02354ZM11.6219 11.1118C10.9954 10.8225 10.4424 10.3809 10.0246 9.80639C10.4667 9.19834 11.0602 8.73901 11.7324 8.45247C11.963 8.91088 12.3335 9.97378 11.6219 11.1118ZM13.3397 11.494C12.9718 11.494 12.6132 11.4406 12.2681 11.3476C13.0104 10.0525 12.6551 8.84289 12.3722 8.23356C12.6849 8.15815 13.0093 8.11879 13.3397 8.11879C14.66 8.1187 15.8835 8.74569 16.6553 9.80639C15.8835 10.8671 14.6601 11.494 13.3397 11.494Z" fill="#A6ED49"/>
</g>
<defs>
<clipPath id="clip0_52_1984">
<rect width="29.4194" height="22.0645" fill="white"/>
</clipPath>
</defs>
</svg>
