<svg width="30" height="23" viewBox="0 0 30 23" fill="none" xmlns="http://www.w3.org/2000/svg">
<g clip-path="url(#clip0_52_1939)">
<path d="M16.7021 4.44385L16.7021 3.77987C16.7021 2.67975 15.8103 1.78793 14.7102 1.78793C13.6101 1.78793 12.7183 2.67975 12.7183 3.77987L12.7183 4.44385" stroke="#A6ED49" stroke-width="1.22581"/>
<line x1="25.335" y1="17.0089" x2="4.08765" y2="17.0089" stroke="#133520" stroke-width="1.22581"/>
<line x1="22.6787" y1="19.6649" x2="6.74323" y2="19.6649" stroke="#A6ED49" stroke-width="1.22581"/>
<path d="M15.1885 5.11963C20.0999 5.36877 24.0059 9.43049 24.0059 14.4038V15.0679H22.7793V14.4038C22.7793 9.947 19.1667 6.3336 14.71 6.3335C10.2531 6.33356 6.63965 9.94697 6.63965 14.4038V15.0679H5.41406V14.4038C5.41406 9.26998 9.57615 5.10798 14.71 5.10791L15.1885 5.11963Z" fill="#133520"/>
</g>
<defs>
<clipPath id="clip0_52_1939">
<rect width="29.4194" height="22.0645" fill="white"/>
</clipPath>
</defs>
</svg>
