<svg width="24" height="18" viewBox="0 0 24 18" fill="none" xmlns="http://www.w3.org/2000/svg">
<g clip-path="url(#clip0_52_1948)">
<path d="M6.52637 7.5896H15.4865V12.1319C15.4865 14.022 13.9543 15.5542 12.0642 15.5542H9.94864C8.05857 15.5542 6.52637 14.022 6.52637 12.1319V7.5896Z" stroke="#013125" stroke-width="0.815789"/>
<path d="M15.4863 8.58545H16.9797C17.8044 8.58545 18.473 9.25405 18.473 10.0788C18.473 10.9036 17.8044 11.5722 16.9797 11.5722H15.4863" stroke="#013125" stroke-width="0.815789"/>
<path d="M9.32571 5.33629C9.32571 5.33629 8.56348 4.95517 8.56348 3.81182C8.56348 2.66847 9.32571 2.28735 9.32571 2.28735" stroke="#013125" stroke-width="0.815789" stroke-linecap="round"/>
<path d="M11.6128 0.763077C11.6128 0.763077 12.375 1.14419 12.375 2.28754C12.375 3.43089 11.6128 3.81201 11.6128 3.81201" stroke="#013125" stroke-width="0.815789" stroke-linecap="round"/>
<path d="M6.52637 17.5454H15.4865" stroke="#013125" stroke-width="0.815789"/>
</g>
<defs>
<clipPath id="clip0_52_1948">
<rect width="24" height="18" fill="white"/>
</clipPath>
</defs>
</svg>
