<svg width="30" height="23" viewBox="0 0 30 23" fill="none" xmlns="http://www.w3.org/2000/svg">
<g clip-path="url(#clip0_52_1629)">
<path d="M8 9.30347H18.9834V14.8714C18.9834 17.1883 17.1052 19.0665 14.7884 19.0665H12.195C9.87819 19.0665 8 17.1883 8 14.8714V9.30347Z" stroke="#F8FFEE" stroke-width="1.22038"/>
<path d="M18.9834 10.5239H20.814C21.825 10.5239 22.6445 11.3435 22.6445 12.3545C22.6445 13.3655 21.825 14.1851 20.814 14.1851H18.9834" stroke="#F8FFEE" stroke-width="1.22038"/>
<path d="M11.4324 6.54136C11.4324 6.54136 10.498 6.07418 10.498 4.67266C10.498 3.27113 11.4324 2.80396 11.4324 2.80396" stroke="#F8FFEE" stroke-width="1.22038" stroke-linecap="round"/>
<path d="M14.2356 0.935447C14.2356 0.935447 15.1699 1.40262 15.1699 2.80415C15.1699 4.20568 14.2356 4.67285 14.2356 4.67285" stroke="#F8FFEE" stroke-width="1.22038" stroke-linecap="round"/>
<path d="M8 21.5073H18.9834" stroke="#A6ED49" stroke-width="1.22038"/>
</g>
<defs>
<clipPath id="clip0_52_1629">
<rect width="29.4194" height="22.0645" fill="white"/>
</clipPath>
</defs>
</svg>
